SplineFontDB: 3.2
FontName: Estedad-Black
FullName: Estedad Black
FamilyName: Estedad Black
Weight: Black
Copyright: Copyright (c) 2017-2019 by Amin Abedi (@aminabedi68)-www.opentypeshop.com and Copyright (c) 2019 by Amin Abedi (@aminabedi68)-www.fontamin.com,\nwith Reserved Font Name Estedad.\n\nThis Font Software is licensed under the SIL Open Font License, Version 1.1.
Version: 3.0
StrokeWidth: 100
ItalicAngle: 0
UnderlinePosition: -650
UnderlineWidth: 150
Ascent: 1638
Descent: 410
InvalidEm: 0
sfntRevision: 0x00030000
LayerCount: 2
Layer: 0 0 "Back" 1
Layer: 1 0 "Fore" 0
PreferredKerning: 4
StyleMap: 0x0000
FSType: 0
OS2Version: 0
OS2_WeightWidthSlopeOnly: 0
OS2_UseTypoMetrics: 1
CreationTime: 1496828874
ModificationTime: 1571600138
PfmFamily: 17
TTFWeight: 900
TTFWidth: 5
LineGap: 0
VLineGap: 213
OS2TypoAscent: 2200
OS2TypoAOffset: 0
OS2TypoDescent: -1200
OS2TypoDOffset: 0
OS2TypoLinegap: 0
OS2WinAscent: 2200
OS2WinAOffset: 0
OS2WinDescent: 1200
OS2WinDOffset: 0
HheadAscent: 2200
HheadAOffset: 0
HheadDescent: -1200
HheadDOffset: 0
OS2CapHeight: 1400
OS2XHeight: 1012
OS2Vendor: 'AA68'
Lookup: 2 0 0 "Multiple substitution 0" { "Multiple substitution 0 subtable"  } []
Lookup: 2 0 0 "Multiple substitution 1" { "Multiple substitution 1 subtable"  } []
Lookup: 1 9 0 "'fina' Terminal Forms in Arabic lookup 2" { "'fina' Terminal Forms in Arabic lookup 2 subtable"  } ['fina' ('arab' <'FAR ' 'KUR ' 'dflt' > ) ]
Lookup: 1 9 0 "'medi' Medial Forms in Arabic lookup 3" { "'medi' Medial Forms in Arabic lookup 3 subtable"  } ['medi' ('arab' <'FAR ' 'KUR ' 'dflt' > ) ]
Lookup: 1 9 0 "'init' Initial Forms in Arabic lookup 4" { "'init' Initial Forms in Arabic lookup 4 subtable"  } ['init' ('arab' <'FAR ' 'KUR ' 'dflt' > ) ]
Lookup: 4 9 1 "'rlig' Required Ligatures in Arabic lookup 5" { "'rlig' Required Ligatures in Arabic lookup 5 subtable"  } ['rlig' ('arab' <'FAR ' 'KUR ' 'dflt' > ) ]

StartChar: period
Encoding: 46 46 0
Width: 550
Flags: HMW
LayerCount: 2
Fore
SplineSet
120 152 m 0
 120 237 190 303 275 303 c 0
 360 303 430 237 430 152 c 0
 430 67 360 0 275 0 c 0
 190 0 120 67 120 152 c 0
EndSplineSet
Colour: ff0000
EndChar

StartChar: slash
Encoding: 47 47 1
Width: 1050
Flags: HMW
LayerCount: 2
Fore
SplineSet
735 1591 m 1
 1007 1465 l 1
 315 -36 l 1
 43 90 l 1
 735 1591 l 1
EndSplineSet
Colour: ffff
EndChar

StartChar: asterisk
Encoding: 42 42 2
Width: 1133
Flags: HMW
LayerCount: 2
Fore
SplineSet
139 1170 m 1
 204 1369 l 1
 461 1285 l 1
 461 1556 l 1
 671 1556 l 1
 671 1284 l 1
 929 1369 l 1
 994 1170 l 1
 737 1085 l 1
 897 865 l 1
 726 742 l 1
 566 962 l 1
 407 742 l 1
 236 865 l 1
 396 1085 l 1
 139 1170 l 1
EndSplineSet
Colour: ff00ff
EndChar

StartChar: parenleft
Encoding: 40 40 3
Width: 598
Flags: HMW
LayerCount: 2
Fore
SplineSet
551 111 m 1
 299 -51 l 1
 148 185 50 448 50 778 c 0
 50 1108 148 1370 299 1606 c 1
 551 1444 l 1
 428 1253 350 1056 350 778 c 0
 350 500 428 302 551 111 c 1
EndSplineSet
Colour: ffff
EndChar

StartChar: parenright
Encoding: 41 41 4
Width: 598
Flags: HMW
LayerCount: 2
Fore
SplineSet
47 1444 m 1
 299 1606 l 1
 450 1370 548 1107 548 777 c 0
 548 447 450 185 299 -51 c 1
 47 111 l 1
 170 302 248 499 248 777 c 0
 248 1055 170 1253 47 1444 c 1
EndSplineSet
Colour: ffff
EndChar

StartChar: uni0660
Encoding: 1632 1632 5
Width: 845
Flags: HMW
LayerCount: 2
Fore
SplineSet
422 695 m 0
 325 695 250 620 250 523 c 0
 250 426 326 349 422 349 c 0
 518 349 595 426 595 523 c 0
 595 619 519 695 422 695 c 0
422 895 m 0
 627 895 795 730 795 523 c 0
 795 317 630 149 422 149 c 0
 214 149 50 318 50 523 c 0
 50 729 216 895 422 895 c 0
EndSplineSet
PairPos2: "'kern' Horizontal Kerning in Arabic lookup 3 per glyph data 0" uni0661 dx=50 dy=0 dh=50 dv=0 dx=0 dy=0 dh=0 dv=0
PairPos2: "'kern' Horizontal Kerning in Arabic lookup 3 per glyph data 0" uni0667 dx=-100 dy=0 dh=-100 dv=0 dx=0 dy=0 dh=0 dv=0
PairPos2: "'kern' Horizontal Kerning in Arabic lookup 3 per glyph data 0" uni0666 dx=-25 dy=0 dh=-25 dv=0 dx=0 dy=0 dh=0 dv=0
PairPos2: "'kern' Horizontal Kerning in Arabic lookup 3 per glyph data 0" uni0662 dx=-125 dy=0 dh=-125 dv=0 dx=0 dy=0 dh=0 dv=0
Colour: ffff
EndChar

StartChar: uni0661
Encoding: 1633 1633 6
Width: 618
Flags: HMW
LayerCount: 2
Fore
SplineSet
568 -3 m 1
 268 -3 l 1
 268 511 192 861 34 1304 c 1
 317 1404 l 1
 485 938 568 543 568 -3 c 1
EndSplineSet
PairPos2: "'kern' Horizontal Kerning in Arabic lookup 3 per glyph data 0" uni0665 dx=-50 dy=0 dh=-50 dv=0 dx=0 dy=0 dh=0 dv=0
PairPos2: "'kern' Horizontal Kerning in Arabic lookup 3 per glyph data 0" uni0660 dx=-50 dy=0 dh=-50 dv=0 dx=0 dy=0 dh=0 dv=0
Colour: ffff
EndChar

StartChar: uni0662
Encoding: 1634 1634 7
Width: 1046
Flags: HMW
LayerCount: 2
Fore
SplineSet
560 947 m 0
 682 947 696 1099 696 1404 c 1
 996 1404 l 1
 996 1141 996 647 587 647 c 0
 566 647 544 648 522 651 c 1
 555 445 568 236 568 0 c 1
 268 0 l 1
 268 527 160 903 35 1316 c 1
 322 1404 l 1
 414 1090 456 947 560 947 c 0
EndSplineSet
Colour: ffff
EndChar

StartChar: uni0663
Encoding: 1635 1635 8
Width: 1383
Flags: HMW
LayerCount: 2
Fore
SplineSet
876 1346 m 1
 871 1255 869 1209 869 1123 c 0
 869 997 882 952 948 952 c 0
 1016 952 1033 1008 1033 1131 c 0
 1033 1204 1022 1280 1006 1356 c 1
 1298 1417 l 1
 1317 1323 1333 1243 1333 1131 c 0
 1333 873 1213 652 941 652 c 0
 839 652 779 689 719 743 c 1
 674 684 620 652 548 652 c 0
 539 652 531 652 522 652 c 1
 555 445 568 237 568 0 c 1
 268 0 l 1
 268 529 160 903 35 1316 c 1
 322 1404 l 1
 412 1047 442 952 512 952 c 0
 594 952 611 1091 619.216796875 1352.08789062 c 1
 876 1346 l 1
EndSplineSet
PairPos2: "'kern' Horizontal Kerning in Arabic lookup 3 per glyph data 0" uni0668 dx=-50 dy=0 dh=-50 dv=0 dx=0 dy=0 dh=0 dv=0
Colour: ffff
EndChar

StartChar: uni0664
Encoding: 1636 1636 9
Width: 997
Flags: HMW
LayerCount: 2
Fore
SplineSet
197 702 m 1
 145 760 111 888 111 991 c 0
 111 1345 442 1404 739 1404 c 1
 739 1104 l 1
 509 1104 411 1059 411 979 c 0
 411 898 513 858 746 858 c 1
 746 558 l 1
 531 558 350 554 350 414 c 0
 350 331 433 297 533 297 c 2
 872 297 l 1
 872 -3 l 1
 533 -3 l 2
 195 -3 50 154 50 351 c 0
 50 500 109 623 197 702 c 1
EndSplineSet
PairPos2: "'kern' Horizontal Kerning in Arabic lookup 3 per glyph data 0" uni0666 dx=50 dy=0 dh=50 dv=0 dx=0 dy=0 dh=0 dv=0
Colour: ffff
EndChar

StartChar: uni0665
Encoding: 1637 1637 10
Width: 1196
Flags: HMW
LayerCount: 2
Fore
SplineSet
500 1404 m 1
 774 1177 1146 846 1146 421 c 0
 1146 90 893 -43 601 -43 c 0
 321 -43 50 86 50 418 c 0
 50 673 178 889 386 1106 c 1
 360 1130 336 1152 310 1174 c 1
 500 1404 l 1
600 896 m 1
 423 711 350 567 350 418 c 0
 350 293 405 257 601 257 c 0
 802 257 846 284 846 421 c 0
 846 562 745 729 600 896 c 1
EndSplineSet
PairPos2: "'kern' Horizontal Kerning in Arabic lookup 3 per glyph data 0" uni0661 dx=50 dy=0 dh=50 dv=0 dx=0 dy=0 dh=0 dv=0
PairPos2: "'kern' Horizontal Kerning in Arabic lookup 3 per glyph data 0" uni0667 dx=-100 dy=0 dh=-100 dv=0 dx=0 dy=0 dh=0 dv=0
Colour: ffff
EndChar

StartChar: uni0666
Encoding: 1638 1638 11
Width: 1168
Flags: HMW
LayerCount: 2
Fore
SplineSet
95 1110 m 1
 159 1404 l 1
 293 1373 456 1349 618 1349 c 0
 709 1349 797 1358 871 1371 c 1
 1011 1246 l 1
 1007 1146 1004 1050 1004 949 c 0
 1004 562 1045 388 1132 35 c 1
 840 -37 l 1
 750 328 704 541 704 949 c 0
 704 983 704 1017 705 1051 c 1
 675 1049 648 1049 618 1049 c 0
 440 1049 254 1077 95 1110 c 1
EndSplineSet
PairPos2: "'kern' Horizontal Kerning in Arabic lookup 3 per glyph data 0" uni0664 dx=-50 dy=0 dh=-50 dv=0 dx=0 dy=0 dh=0 dv=0
PairPos2: "'kern' Horizontal Kerning in Arabic lookup 3 per glyph data 0" uni0665 dx=-175 dy=0 dh=-175 dv=0 dx=0 dy=0 dh=0 dv=0
PairPos2: "'kern' Horizontal Kerning in Arabic lookup 3 per glyph data 0" uni0660 dx=-200 dy=0 dh=-200 dv=0 dx=0 dy=0 dh=0 dv=0
PairPos2: "'kern' Horizontal Kerning in Arabic lookup 3 per glyph data 0" uni066B dx=-150 dy=0 dh=-150 dv=0 dx=0 dy=0 dh=0 dv=0
PairPos2: "'kern' Horizontal Kerning in Arabic lookup 3 per glyph data 0" uni0668 dx=-200 dy=0 dh=-200 dv=0 dx=0 dy=0 dh=0 dv=0
Colour: ffff
EndChar

StartChar: uni0667
Encoding: 1639 1639 12
Width: 1315
Flags: HMW
LayerCount: 2
Fore
SplineSet
1043 1405 m 1
 1279 1220 l 1
 1020 887 857 635 789 0 c 1
 527 0 l 1
 465 595 317 855 36 1221 c 1
 274 1404 l 1
 436 1191 566 1002 658 680 c 1
 750 1003 880 1192 1043 1405 c 1
EndSplineSet
PairPos2: "'kern' Horizontal Kerning in Arabic lookup 3 per glyph data 0" uni0660 dx=-100 dy=0 dh=-100 dv=0 dx=0 dy=0 dh=0 dv=0
PairPos2: "'kern' Horizontal Kerning in Arabic lookup 3 per glyph data 0" uni0665 dx=-100 dy=0 dh=-100 dv=0 dx=0 dy=0 dh=0 dv=0
PairPos2: "'kern' Horizontal Kerning in Arabic lookup 3 per glyph data 0" uni0668 dx=-150 dy=0 dh=-150 dv=0 dx=0 dy=0 dh=0 dv=0
PairPos2: "'kern' Horizontal Kerning in Arabic lookup 3 per glyph data 0" uni066B dx=-125 dy=0 dh=-125 dv=0 dx=0 dy=0 dh=0 dv=0
Colour: ffff
EndChar

StartChar: uni0668
Encoding: 1640 1640 13
Width: 1315
Flags: HMW
LayerCount: 2
Fore
SplineSet
272 -40 m 1
 36 145 l 1
 295 478 458 729 526 1364 c 1
 788 1364 l 1
 850 769 998 510 1279 144 c 1
 1041 -39 l 1
 879 174 749 363 657 685 c 1
 565 362 435 173 272 -40 c 1
EndSplineSet
PairPos2: "'kern' Horizontal Kerning in Arabic lookup 3 per glyph data 0" uni0663 dx=-200 dy=0 dh=-200 dv=0 dx=0 dy=0 dh=0 dv=0
PairPos2: "'kern' Horizontal Kerning in Arabic lookup 3 per glyph data 0" uni0662 dx=-175 dy=0 dh=-175 dv=0 dx=0 dy=0 dh=0 dv=0
PairPos2: "'kern' Horizontal Kerning in Arabic lookup 3 per glyph data 0" uni0667 dx=-150 dy=0 dh=-150 dv=0 dx=0 dy=0 dh=0 dv=0
Colour: ffff
EndChar

StartChar: uni0669
Encoding: 1641 1641 14
Width: 1035
Flags: HMW
LayerCount: 2
Fore
SplineSet
586 531 m 1
 558 528 530 527 501 527 c 0
 302 527 50 616 50 903 c 0
 50 1122 179 1404 467 1404 c 0
 796 1404 878 1100 878 876 c 0
 878 701 884 522 906 400 c 0
 925 295 962 171 1003 80 c 1
 727 -40 l 1
 650 138 600 281 586 531 c 1
578 833 m 1
 578 876 l 2
 578 1077 538 1104 467 1104 c 0
 424 1104 350 1046 350 903 c 0
 350 850 379 827 501 827 c 0
 528 827 554 830 578 833 c 1
EndSplineSet
PairPos2: "'kern' Horizontal Kerning in Arabic lookup 3 per glyph data 0" uni066B dx=200 dy=0 dh=200 dv=0 dx=0 dy=0 dh=0 dv=0
PairPos2: "'kern' Horizontal Kerning in Arabic lookup 3 per glyph data 0" uni0668 dx=-150 dy=0 dh=-150 dv=0 dx=0 dy=0 dh=0 dv=0
PairPos2: "'kern' Horizontal Kerning in Arabic lookup 3 per glyph data 0" uni0665 dx=-50 dy=0 dh=-50 dv=0 dx=0 dy=0 dh=0 dv=0
Colour: ffff
EndChar

StartChar: uni06F4
Encoding: 1780 1780 19
Width: 1179
Flags: HMW
LayerCount: 2
Fore
SplineSet
528 612 m 1
 563 368 568 243 568 0 c 1
 268 0 l 1
 268 499 170 892 45 1312 c 1
 329 1404 l 1
 352 1349 403 1221 420 1166 c 1
 468 1326 602 1414 772 1414 c 0
 847 1414 957 1376 1033 1341 c 1
 917 1065 l 1
 861 1101 816 1115 742 1115 c 0
 647 1115 573 1054 573 930 c 0
 573 847 656 840 761 840 c 0
 842 840 923 850 1005 866 c 1
 1032 567 l 1
 956 550 890 543 831 543 c 0
 706 543 629 557 528 612 c 1
EndSplineSet
PairPos2: "'kern' Horizontal Kerning in Arabic lookup 3 per glyph data 1" uni06F0 dx=-25 dy=0 dh=-25 dv=0 dx=0 dy=0 dh=0 dv=0
PairPos2: "'kern' Horizontal Kerning in Arabic lookup 3 per glyph data 1" uni06F8 dx=-50 dy=0 dh=-50 dv=0 dx=0 dy=0 dh=0 dv=0
Colour: ffff
EndChar

StartChar: uni06F5
Encoding: 1781 1781 20
Width: 1276
Flags: HMW
LayerCount: 2
Fore
SplineSet
645 25 m 1
 582 -18 509 -40 434 -40 c 0
 224 -40 50 140 50 401 c 0
 50 618 157 866 412 1108 c 1
 390 1125 368 1142 342 1161 c 1
 513 1404 l 1
 590 1351 667 1295 737 1233 c 0
 1032 976 1226 680 1226 386 c 0
 1226 135 1056 -40 852 -40 c 0
 778 -40 704 -16 645 25 c 1
538 409 m 1
 758 409 l 1
 758 325 l 2
 758 278 779 260 836 260 c 0
 879 260 926 284 926 386 c 0
 926 522 830 712 641 911 c 1
 419 712 350 526 350 401 c 0
 350 280 410 260 454 260 c 0
 517 260 538 286 538 325 c 2
 538 409 l 1
EndSplineSet
PairPos2: "'kern' Horizontal Kerning in Arabic lookup 3 per glyph data 1" uni06F1 dx=50 dy=0 dh=50 dv=0 dx=0 dy=0 dh=0 dv=0
PairPos2: "'kern' Horizontal Kerning in Arabic lookup 3 per glyph data 1" uni06F2 dx=-25 dy=0 dh=-25 dv=0 dx=0 dy=0 dh=0 dv=0
PairPos2: "'kern' Horizontal Kerning in Arabic lookup 3 per glyph data 1" uni06F3 dx=-25 dy=0 dh=-25 dv=0 dx=0 dy=0 dh=0 dv=0
PairPos2: "'kern' Horizontal Kerning in Arabic lookup 3 per glyph data 1" uni06F7 dx=-100 dy=0 dh=-100 dv=0 dx=0 dy=0 dh=0 dv=0
PairPos2: "'kern' Horizontal Kerning in Arabic lookup 3 per glyph data 1" uni06F9 dx=-75 dy=0 dh=-75 dv=0 dx=0 dy=0 dh=0 dv=0
Colour: ffff
EndChar

StartChar: uni06F6
Encoding: 1782 1782 21
Width: 1034
Flags: HMW
LayerCount: 2
Fore
SplineSet
565 813 m 0
 686 813 778 865 861 926 c 1
 1054 694 l 1
 742 479 472 222 293 -40 c 1
 32 108 l 1
 151 288 244 405 376 540 c 1
 214 587 56 710 56 932 c 0
 56 1196 253 1404 514 1404 c 0
 699 1404 804 1311 899 1223 c 1
 694 1002 l 1
 647 1056 599 1104 514 1104 c 0
 427 1104 356 1025 356 932 c 0
 356 850 457 813 565 813 c 0
EndSplineSet
Colour: ffff
EndChar

StartChar: GAFbar
Encoding: 1114120 -1 44
Width: 999
Flags: HMW
LayerCount: 2
Fore
SplineSet
814 1993 m 1
 844 1847 l 1
 591 1795 332 1692 116 1554 c 1
 35 1680 l 1
 269 1830 543 1937 814 1993 c 1
EndSplineSet
Colour: ff00ff
EndChar

StartChar: uni060C
Encoding: 1548 1548 58
Width: 550
Flags: HMW
LayerCount: 2
Fore
SplineSet
272 636 m 1
 349 582 l 1
 296 521 231 391 231 296 c 1
 334 296 434 254 434 152 c 0
 434 82 395 1 282 1 c 0
 173 1 116 78 116 191 c 0
 116 393 192 538 272 636 c 1
EndSplineSet
EndChar

StartChar: uni0615
Encoding: 1557 1557 60
Width: 0
Flags: HMW
AnchorPoint: "Anchor-5" 0 1234 mark 0
AnchorPoint: "Anchor-4" 0 1234 mark 0
AnchorPoint: "Anchor-1" 0 1234 mark 0
AnchorPoint: "Anchor-1" 0 1573 basemark 0
LayerCount: 2
Fore
SplineSet
286 1720 m 0
 286 1524 49 1520 -157 1518 c 2
 -286 1518 l 1
 -286 1638 l 1
 -186 1638 l 1
 -186 2051 l 1
 -66 2051 l 1
 -66 1801 l 1
 -8 1855 54 1884 118 1884 c 0
 208 1884 286 1820 286 1720 c 0
-43 1641 m 1
 133 1650 166 1680 166 1720 c 0
 166 1751 153 1764 118 1764 c 0
 81 1764 16 1733 -43 1641 c 1
EndSplineSet
Colour: ff00
EndChar

StartChar: less
Encoding: 60 60 62
Width: 775
Flags: HMW
LayerCount: 2
Fore
SplineSet
546 1173 m 1
 659 1056 l 1
 262 680 l 1
 659 303 l 1
 546 186 l 1
 25 680 l 1
 546 1173 l 1
EndSplineSet
Colour: ff00ff
EndChar

StartChar: greater
Encoding: 62 62 64
Width: 775
Flags: HMW
LayerCount: 2
Fore
SplineSet
229 186 m 1
 116 303 l 1
 513 680 l 1
 116 1056 l 1
 229 1173 l 1
 750 680 l 1
 229 186 l 1
EndSplineSet
Colour: ff00
EndChar

StartChar: braceleft
Encoding: 123 123 65
Width: 856
Flags: HMW
LayerCount: 2
Fore
SplineSet
496 778 m 1
 551 712 585 630 585 538 c 2
 585 312 l 2
 585 262 592 254 642 254 c 2
 756 254 l 1
 756 0 l 1
 572 0 l 2
 414 0 285 111 285 262 c 2
 285 538 l 2
 285 596 252 629 205 642 c 2
 100 672 l 1
 100 884 l 1
 205 914 l 2
 252 927 285 960 285 1018 c 2
 285 1294 l 2
 285 1445 414 1556 572 1556 c 2
 756 1556 l 1
 756 1302 l 1
 642 1302 l 2
 592 1302 585 1294 585 1244 c 2
 585 1018 l 2
 585 926 552 843 496 778 c 1
EndSplineSet
Colour: ffff00
EndChar

StartChar: braceright
Encoding: 125 125 66
Width: 856
Flags: HMW
LayerCount: 2
Fore
SplineSet
360 778 m 1
 304 843 271 926 271 1018 c 2
 271 1244 l 2
 271 1294 264 1302 214 1302 c 2
 100 1302 l 1
 100 1556 l 1
 284 1556 l 2
 442 1556 571 1445 571 1294 c 2
 571 1018 l 2
 571 960 604 927 651 914 c 2
 756 884 l 1
 756 672 l 1
 651 642 l 2
 604 629 571 596 571 538 c 2
 571 262 l 2
 571 111 442 0 284 0 c 2
 100 0 l 1
 100 254 l 1
 214 254 l 2
 264 254 271 262 271 312 c 2
 271 538 l 2
 271 630 305 712 360 778 c 1
EndSplineSet
Colour: ffff00
EndChar

StartChar: uni061F
Encoding: 1567 1567 69
Width: 1067
Flags: HMW
LayerCount: 2
Fore
SplineSet
704 427 m 1
 404 427 l 1
 404 600 318 666 229 734 c 0
 140 802 50 872 50 1055 c 0
 50 1309 225 1556 539 1556 c 0
 853 1556 1017 1332 1017 1096 c 0
 1017 1054 1009 995 1003 953 c 1
 706 989 l 1
 713 1024 717 1054 717 1096 c 0
 717 1224 667 1300 539 1300 c 0
 413 1300 351 1205 351 1107 c 0
 351 981 422 915 501 844 c 0
 597 757 704 659 704 427 c 1
EndSplineSet
Refer: 0 46 N -1 0 0 1 778 0 2
Colour: ffff00
EndChar

StartChar: uni066C
Encoding: 1644 1644 87
Width: 587
Flags: HMW
LayerCount: 2
Fore
SplineSet
179 832 m 1
 121 901 l 1
 193 959 271 1066 301 1137 c 1
 228 1137 120 1200 120 1309 c 0
 120 1401 189 1483 283 1483 c 0
 379 1483 467 1422 467 1274 c 0
 467 1118 293 923 179 832 c 1
EndSplineSet
EndChar

StartChar: uni066D
Encoding: 1645 1645 88
Width: 910
Flags: HMW
LayerCount: 2
Fore
SplineSet
560 686 m 1
 350 686 l 1
 350 939 l 1
 132 813 l 1
 26 995 l 1
 245 1121 l 1
 26 1248 l 1
 132 1430 l 1
 350 1304 l 1
 350 1556 l 1
 560 1556 l 1
 560 1304 l 1
 778 1430 l 1
 884 1248 l 1
 665 1121 l 1
 884 995 l 1
 778 813 l 1
 560 939 l 1
 560 686 l 1
EndSplineSet
Colour: ff00ff
EndChar

StartChar: zero
Encoding: 48 48 138
Width: 1319
Flags: HMW
LayerCount: 2
Fore
SplineSet
660 -20 m 0
 168 -20 100 506 100 778 c 0
 100 1050 168 1576 660 1576 c 0
 1152 1576 1219 1050 1219 778 c 0
 1219 506 1152 -20 660 -20 c 0
660 234 m 0
 831 234 919 474 919 778 c 0
 919 1082 831 1320 660 1320 c 0
 489 1320 400 1081 400 778 c 0
 400 475 489 234 660 234 c 0
EndSplineSet
Colour: ffff00
EndChar

StartChar: one
Encoding: 49 49 139
Width: 983
Flags: HMW
LayerCount: 2
Fore
SplineSet
204 1075 m 1
 200 1309 l 1
 423 1310 l 2
 477 1310 484 1318 484 1381 c 2
 483 1556 l 1
 783 1556 l 1
 783 0 l 1
 483 0 l 1
 483 1086 l 1
 439 1080 394 1075 344 1075 c 2
 204 1075 l 1
EndSplineSet
Colour: ffff00
EndChar

StartChar: two
Encoding: 50 50 140
Width: 1241
Flags: HMW
LayerCount: 2
Fore
SplineSet
1151 0 m 1
 70 0 l 1
 70 187 l 2
 70 533 370 670 644 759 c 0
 816.995117188 815.192382812 851 929 851 1062 c 0
 851 1239 748 1322 611 1322 c 0
 472 1322 372 1212 372 1002 c 1
 72 1002 l 1
 72 1343 297 1576 611 1576 c 0
 907 1576 1151 1372 1151 1062 c 0
 1151 882 1081.33398438 627.350585938 762 525 c 0
 528 450 385 380 385 262 c 2
 385 254 l 1
 1151 254 l 1
 1151 0 l 1
EndSplineSet
Colour: ffff00
EndChar

StartChar: three
Encoding: 51 51 141
Width: 1259
Flags: HMW
LayerCount: 2
Fore
SplineSet
60 510 m 1
 360 510 l 1
 360 331 433 234 608 234 c 0
 758 234 859 307 859 448 c 0
 859 612 759 705 599 705 c 2
 476 705 l 1
 476 940 l 1
 599 940 l 2
 759 940 820 1041 820 1130 c 0
 820 1251 738 1321 621 1321 c 0
 465 1321 419 1241 419 1089 c 1
 119 1089 l 1
 119 1430 360 1576 621 1576 c 0
 854 1576 1120 1430 1120 1130 c 0
 1120 1020 1076 900 1002 828 c 1
 1100 743 1159 599 1159 448 c 0
 1159 106 843 -20 608 -20 c 0
 323 -20 60 144 60 510 c 1
EndSplineSet
Colour: ffff00
EndChar

StartChar: four
Encoding: 52 52 142
Width: 1287
Flags: HMW
LayerCount: 2
Fore
SplineSet
754 582 m 1
 754 1107 l 1
 395 582 l 1
 754 582 l 1
1217 582 m 1
 1217 346 l 1
 1054 346 l 1
 1054 0 l 1
 754 0 l 1
 754 346 l 1
 70 346 l 1
 70 533 l 1
 774 1556 l 1
 1054 1556 l 1
 1054 582 l 1
 1217 582 l 1
EndSplineSet
Colour: ffff00
EndChar

StartChar: five
Encoding: 53 53 143
Width: 1267
Flags: HMW
LayerCount: 2
Fore
SplineSet
100 453 m 1
 400 453 l 1
 400 318 438 234 598 234 c 0
 787 234 867 314 867 553 c 0
 867 767 778 892 598 892 c 0
 510 892 376 828 298 750 c 1
 112 843 l 1
 181 1556 l 1
 1142 1556 l 1
 1142 1300 l 1
 455 1300 l 1
 441 1108 l 1
 494 1121 546 1126 598 1126 c 0
 964 1126 1167 869 1167 553 c 0
 1167 207 956 -20 598 -20 c 0
 261 -20 100 188 100 453 c 1
EndSplineSet
Colour: ffff00
EndChar

StartChar: six
Encoding: 54 54 144
Width: 1265
Flags: HMW
LayerCount: 2
Fore
SplineSet
687 784 m 0
 586 784 495 763 399 721 c 1
 413 405 482 234 663 234 c 0
 803 234 895 345 895 524 c 0
 895 699 809 784 687 784 c 0
689 1026 m 0
 988 1026 1195 864 1195 534 c 0
 1195 229 1005 -20 663 -20 c 0
 158 -20 100 472 100 761 c 0
 100 1256 301 1576 693 1576 c 0
 899 1576 1051 1516 1176.5078125 1417.70898438 c 1
 1055 1233 l 1
 945 1301 845 1321 747 1321 c 0
 561 1321 425 1223 425 980 c 1
 504 1010 609 1026 689 1026 c 0
EndSplineSet
Colour: ffff00
EndChar

StartChar: seven
Encoding: 55 55 145
Width: 1189
Flags: HMW
LayerCount: 2
Fore
SplineSet
60 1300 m 1
 60 1556 l 1
 1019 1556 l 1
 1089 1364 l 1
 464 -22 l 1
 183 75 l 1
 747 1300 l 1
 60 1300 l 1
EndSplineSet
Colour: ffff00
EndChar

StartChar: eight
Encoding: 56 56 146
Width: 1257
Flags: HMW
LayerCount: 2
Fore
SplineSet
793 1156 m 0
 793 1234 756 1320 629 1320 c 0
 502 1320 464 1233 464 1156 c 0
 464 1025 493 974 628 974 c 0
 763 974 793 1026 793 1156 c 0
400 438 m 0
 400 327 464 234 629 234 c 0
 794 234 857 326 857 438 c 0
 857 580 744 700 628 700 c 0
 506 700 400 585 400 438 c 0
952 838 m 1
 1062 752 1157 587 1157 438 c 0
 1157 174 936 -20 629 -20 c 0
 323 -20 100 173 100 438 c 0
 100 587 195 753 304 839 c 1
 229 909 164 1040 164 1156 c 0
 164 1350 316 1576 629 1576 c 0
 942 1576 1093 1349 1093 1156 c 0
 1093 1039 1028 907 952 838 c 1
EndSplineSet
Colour: ffff00
EndChar

StartChar: nine
Encoding: 57 57 147
Width: 1295
Flags: HMW
LayerCount: 2
Fore
SplineSet
886 835 m 1
 872 1151 803 1322 622 1322 c 0
 482 1322 390 1211 390 1032 c 0
 390 857 476 772 598 772 c 0
 699 772 790 793 886 835 c 1
860 576 m 1
 781 546 676 530 596 530 c 0
 297 530 90 692 90 1022 c 0
 90 1327 280 1576 622 1576 c 0
 1127 1576 1185 1084 1185 795 c 0
 1185 300 984 -20 592 -20 c 0
 386 -20 234 40 108.4921875 138.291015625 c 1
 230 323 l 1
 340 255 440 235 538 235 c 0
 724 235 860 333 860 576 c 1
EndSplineSet
Colour: ffff00
EndChar

StartChar: exclam
Encoding: 33 33 245
Width: 610
Flags: HMW
LayerCount: 2
Fore
SplineSet
455 473 m 1
 155 473 l 1
 155 1556 l 1
 455 1556 l 1
 455 473 l 1
EndSplineSet
Refer: 0 46 N 1 0 0 1 30 0 2
Colour: ffff
EndChar

StartChar: uni066B
Encoding: 1643 1643 246
Width: 787
Flags: HMW
LayerCount: 2
Fore
SplineSet
295 -296 m 1
 16 -188 l 1
 501 1050 l 1
 780 942 l 1
 295 -296 l 1
EndSplineSet
PairPos2: "'kern' Horizontal Kerning in Arabic lookup 3 per glyph data 1" uni06F7 dx=-100 dy=0 dh=-100 dv=0 dx=0 dy=0 dh=0 dv=0
PairPos2: "'kern' Horizontal Kerning in Arabic lookup 3 per glyph data 1" uni06F0 dx=-50 dy=0 dh=-50 dv=0 dx=0 dy=0 dh=0 dv=0
PairPos2: "'kern' Horizontal Kerning in Arabic lookup 3 per glyph data 1" uni06F3 dx=-75 dy=0 dh=-75 dv=0 dx=0 dy=0 dh=0 dv=0
PairPos2: "'kern' Horizontal Kerning in Arabic lookup 3 per glyph data 1" uni06F2 dx=-100 dy=0 dh=-100 dv=0 dx=0 dy=0 dh=0 dv=0
PairPos2: "'kern' Horizontal Kerning in Arabic lookup 3 per glyph data 1" uni066B dx=-50 dy=0 dh=-50 dv=0 dx=0 dy=0 dh=0 dv=0
PairPos2: "'kern' Horizontal Kerning in Arabic lookup 3 per glyph data 0" uni0663 dx=-150 dy=0 dh=-150 dv=0 dx=0 dy=0 dh=0 dv=0
PairPos2: "'kern' Horizontal Kerning in Arabic lookup 3 per glyph data 0" uni0662 dx=-100 dy=0 dh=-100 dv=0 dx=0 dy=0 dh=0 dv=0
PairPos2: "'kern' Horizontal Kerning in Arabic lookup 3 per glyph data 0" uni0667 dx=-100 dy=0 dh=-100 dv=0 dx=0 dy=0 dh=0 dv=0
Colour: ffff
EndChar

StartChar: uniE000
Encoding: 57344 57344 247
Width: 120
Flags: HMW
LayerCount: 2
Fore
SplineSet
0 297 m 2
 120 297 l 1
 120 -3 l 1
 0 -3 l 2
 -83 -3 -150 64 -150 147 c 0
 -150 230 -83 297 0 297 c 2
EndSplineSet
Colour: ffff
EndChar

StartChar: uniE001
Encoding: 57345 57345 248
Width: 320
Flags: HMW
LayerCount: 2
Fore
SplineSet
0 297 m 2
 320 297 l 1
 320 -3 l 1
 0 -3 l 2
 -83 -3 -150 64 -150 147 c 0
 -150 230 -83 297 0 297 c 2
EndSplineSet
Colour: ffff
EndChar

StartChar: uniE002
Encoding: 57346 57346 249
Width: 450
Flags: HMW
LayerCount: 2
Fore
SplineSet
0 297 m 2
 450 297 l 1
 450 -3 l 1
 0 -3 l 2
 -83 -3 -150 64 -150 147 c 0
 -150 230 -83 297 0 297 c 2
EndSplineSet
Colour: ffff
EndChar

StartChar: simpledot
Encoding: 1114127 -1 250
Width: 2730
Flags: HMW
LayerCount: 2
Fore
SplineSet
1017 204 m 1
 1187 374 l 1
 1357 204 l 1
 1187 34 l 1
 1017 204 l 1
EndSplineSet
Colour: ff0000
EndChar

StartChar: hyphen
Encoding: 45 45 251
Width: 993
Flags: HMW
LayerCount: 2
Fore
SplineSet
923 700 m 1
 923 464 l 1
 70 464 l 1
 70 700 l 1
 923 700 l 1
EndSplineSet
Colour: ffff00
EndChar

StartChar: numbersign
Encoding: 35 35 253
Width: 1743
Flags: HMW
LayerCount: 2
Fore
SplineSet
508 -10 m 1
 217 59 l 1
 329 446 l 1
 100 446 l 1
 100 680 l 1
 413 680 l 1
 471 910 l 1
 192 910 l 1
 192 1146 l 1
 555 1146 l 1
 677 1565 l 1
 969 1496 l 1
 867 1146 l 1
 1103 1146 l 1
 1225 1565 l 1
 1517 1496 l 1
 1415 1146 l 1
 1643 1146 l 1
 1643 910 l 1
 1331 910 l 1
 1273 680 l 1
 1551 680 l 1
 1551 446 l 1
 1189 446 l 1
 1056 -10 l 1
 765 59 l 1
 877 446 l 1
 641 446 l 1
 508 -10 l 1
1019 910 m 1
 783 910 l 1
 725 680 l 1
 961 680 l 1
 1019 910 l 1
EndSplineSet
Colour: ffff00
EndChar

StartChar: ampersand
Encoding: 38 38 256
Width: 1339
Flags: HMW
LayerCount: 2
Fore
SplineSet
572 996 m 1
 694 1064 739 1128 739 1205 c 0
 739 1254 708 1320 619 1320 c 0
 529 1320 490 1254 490 1175 c 0
 490 1133 499 1093 531 1051 c 2
 572 996 l 1
757 256 m 1
 489 620 l 1
 428 572 400 529 400 448 c 0
 400 335 461 234 620 234 c 0
 665 234 717 242 757 256 c 1
1136 221 m 1
 1239 85 l 1
 983 -61 l 1
 910 37 l 1
 823 -1 725 -20 620 -20 c 0
 331 -20 100 174 100 448 c 0
 100 636 205 764 319 848 c 1
 286 892 l 1
 220 973 190 1084 190 1175 c 0
 190 1375 345 1576 619 1576 c 0
 871 1576 1039 1399 1039 1205 c 0
 1039 985 875 845 742 768 c 1
 932 495 l 1
 938 532 939 574 939 618 c 1
 1238 618 l 1
 1238 457 1216 336 1136 221 c 1
EndSplineSet
Colour: ffff00
EndChar

StartChar: quotesingle
Encoding: 39 39 257
Width: 400
Flags: HMW
LayerCount: 2
Fore
SplineSet
110 1493 m 1
 290 1493 l 1
 290 958 l 1
 110 958 l 1
 110 1493 l 1
EndSplineSet
Colour: ff00
EndChar

StartChar: plus
Encoding: 43 43 258
Width: 993
Flags: HMW
LayerCount: 2
Fore
SplineSet
923 700 m 1
 923 464 l 1
 626 464 l 1
 626 156 l 1
 366 156 l 1
 366 464 l 1
 70 464 l 1
 70 700 l 1
 366 700 l 1
 366 1008 l 1
 626 1008 l 1
 626 700 l 1
 923 700 l 1
EndSplineSet
Colour: ffff00
EndChar

StartChar: comma
Encoding: 44 44 259
Width: 502
Flags: HMW
LayerCount: 2
Fore
SplineSet
213 -199 m 1
 146 -147 l 1
 178 -111 270 -4 270 117 c 1
 172 117 120 161 120 251 c 0
 120 326 175 377 242 377 c 0
 328 377 382 320 382 206 c 0
 382 15 286 -110 213 -199 c 1
EndSplineSet
EndChar

StartChar: question
Encoding: 63 63 261
Width: 1067
Flags: HMW
LayerCount: 2
Fore
SplineSet
361 989 m 1
 64 953 l 1
 58 995 50 1054 50 1096 c 0
 50 1332 214 1556 528 1556 c 0
 842 1556 1017 1309 1017 1055 c 0
 1017 872 927 802 838 734 c 0
 750 667 663 600 663 427 c 1
 363 427 l 1
 363 659 470 757 566 844 c 0
 645 915 716 981 716 1107 c 0
 716 1205 654 1300 528 1300 c 0
 400 1300 350 1224 350 1096 c 0
 350 1054 354 1024 361 989 c 1
EndSplineSet
Refer: 0 46 N -1 0 0 1 792 0 2
Colour: ffff00
EndChar

StartChar: at
Encoding: 64 64 262
Width: 2361
Flags: HMW
LayerCount: 2
Fore
SplineSet
1196 1210 m 0
 1445 1210 1562 1116 1682 1019 c 1
 1626 371 l 2
 1625 364 1625 363 1625 351 c 0
 1625 264 1719 202 1783 202 c 0
 1889 202 2021 338 2021 602 c 0
 2021 1085 1631 1457 1181 1457 c 0
 731 1457 340 1085 340 602 c 0
 340 119 729 -251 1181 -251 c 0
 1279 -251 1373 -236 1459 -205 c 1
 1520 -360 l 1
 1416 -397 1302 -416 1181 -416 c 0
 601 -416 150 50 150 602 c 0
 150 1154 600 1620 1181 1620 c 0
 1762 1620 2211 1154 2211 602 c 0
 2211 335 2071 -22 1704 -22 c 0
 1586 -22 1490 23 1426 90 c 1
 1337 17 1228 -22 1113 -22 c 0
 854 -22 602 156 602 524 c 0
 602 938 861 1210 1196 1210 c 0
1196 954 m 0
 1066 954 902 840 902 524 c 0
 902 286 1013 234 1113 234 c 0
 1191 234 1319 302 1341 553 c 2
 1371 917 l 1
 1332 939 1289 954 1196 954 c 0
EndSplineSet
Colour: ffff00
EndChar

StartChar: A
Encoding: 65 65 263
Width: 1461
Flags: HMW
LayerCount: 2
Fore
SplineSet
554 644 m 1
 907 644 l 1
 731 1136 l 1
 554 644 l 1
320 0 m 1
 0 0 l 1
 602 1556 l 1
 860 1556 l 1
 1461 0 l 1
 1141 0 l 1
 996 410 l 1
 465 410 l 1
 320 0 l 1
EndSplineSet
Colour: ffff00
EndChar

StartChar: B
Encoding: 66 66 264
Width: 1396
Flags: HMW
LayerCount: 2
Fore
SplineSet
130 1556 m 1
 745 1556 l 2
 1016 1556 1233 1355 1233 1096 c 0
 1233 985 1192 884 1125 807 c 1
 1231 722 1296 594 1296 453 c 0
 1296 192 1075 0 808 0 c 2
 130 0 l 1
 130 1556 l 1
430 660 m 1
 430 254 l 1
 808 254 l 2
 913 254 996 321 996 453 c 0
 996 588 908 660 808 660 c 2
 430 660 l 1
745 896 m 2
 850 896 933 964 933 1096 c 0
 933 1229 847 1300 745 1300 c 2
 430 1300 l 1
 430 896 l 1
 745 896 l 2
EndSplineSet
Colour: ffff00
EndChar

StartChar: C
Encoding: 67 67 265
Width: 1401
Flags: HMW
LayerCount: 2
Fore
SplineSet
1115 379 m 1
 1336 192 l 1
 1213 67 1041 -20 816 -20 c 0
 317 -20 85 376 85 778 c 0
 85 1180 317 1576 816 1576 c 0
 1041 1576 1209 1490 1336 1364 c 1
 1115 1177 l 1
 1042 1249 961 1320 816 1320 c 0
 531 1320 385 1100 385 778 c 0
 385 456 531 234 816 234 c 0
 957 234 1037 302 1115 379 c 1
EndSplineSet
Colour: ffff00
EndChar

StartChar: D
Encoding: 68 68 266
Width: 1437
Flags: HMW
LayerCount: 2
Fore
SplineSet
620 1556 m 2
 1123 1556 1352 1186 1352 778 c 0
 1352 370 1123 0 620 0 c 2
 130 0 l 1
 130 1556 l 1
 620 1556 l 2
620 1300 m 2
 430 1300 l 1
 430 254 l 1
 620 254 l 2
 912 254 1052 429 1052 778 c 0
 1052 1126 912 1300 620 1300 c 2
EndSplineSet
Colour: ffff00
EndChar

StartChar: E
Encoding: 69 69 267
Width: 1151
Flags: HMW
LayerCount: 2
Fore
SplineSet
1111 254 m 1
 1111 0 l 1
 130 0 l 1
 130 1556 l 1
 1111 1556 l 1
 1111 1300 l 1
 430 1300 l 1
 430 896 l 1
 1111 896 l 1
 1111 660 l 1
 430 660 l 1
 430 254 l 1
 1111 254 l 1
EndSplineSet
Colour: ffff00
EndChar

StartChar: F
Encoding: 70 70 268
Width: 1151
Flags: HMW
LayerCount: 2
Fore
SplineSet
430 0 m 1
 130 0 l 1
 130 1556 l 1
 1111 1556 l 1
 1111 1300 l 1
 430 1300 l 1
 430 896 l 1
 995 896 l 1
 995 660 l 1
 430 660 l 1
 430 0 l 1
EndSplineSet
Colour: ffff00
EndChar

StartChar: G
Encoding: 71 71 269
Width: 1540
Flags: HMW
LayerCount: 2
Fore
SplineSet
754 621 m 1
 750 855 l 1
 1430 858 l 1
 1430 532 l 2
 1430 259 1271 -20 831 -20 c 0
 332 -20 100 376 100 778 c 0
 100 1180 332 1576 831 1576 c 0
 1053 1576 1240 1503 1378 1364 c 1
 1157 1177 l 1
 1095 1244 983 1300 831 1300 c 0
 546 1300 400 1100 400 778 c 0
 400 456 546 254 831 254 c 0
 1104 254 1130 356 1130 532 c 2
 1130 622 l 1
 754 621 l 1
EndSplineSet
Colour: ffff00
EndChar

StartChar: H
Encoding: 72 72 270
Width: 1429
Flags: HMW
LayerCount: 2
Fore
SplineSet
999 1556 m 1
 1299 1556 l 1
 1299 0 l 1
 999 0 l 1
 999 682 l 1
 430 682 l 1
 430 0 l 1
 130 0 l 1
 130 1556 l 1
 430 1556 l 1
 430 918 l 1
 999 918 l 1
 999 1556 l 1
EndSplineSet
Colour: ffff00
EndChar

StartChar: I
Encoding: 73 73 271
Width: 620
Flags: HMW
LayerCount: 2
Fore
SplineSet
460 0 m 1
 160 0 l 1
 160 1556 l 1
 460 1556 l 1
 460 0 l 1
EndSplineSet
Colour: ffff00
EndChar

StartChar: J
Encoding: 74 74 272
Width: 965
Flags: HMW
LayerCount: 2
Fore
SplineSet
40 65 m 1
 201 298 l 1
 234 264 277 234 351 234 c 0
 470 234 535 275 535 452 c 2
 535 1556 l 1
 835 1556 l 1
 835 452 l 2
 835 133 605 -20 351 -20 c 0
 237 -20 138 5 40 65 c 1
EndSplineSet
Colour: ffff00
EndChar

StartChar: K
Encoding: 75 75 273
Width: 1382
Flags: HMW
LayerCount: 2
Fore
SplineSet
984 1556 m 1
 1382 1556 l 1
 696 805 l 1
 1371 0 l 1
 987 0 l 1
 496 592 l 1
 430 522 l 1
 430 0 l 1
 130 0 l 1
 130 1556 l 1
 430 1556 l 1
 430 943 l 1
 984 1556 l 1
EndSplineSet
Colour: ffff00
EndChar

StartChar: L
Encoding: 76 76 274
Width: 1151
Flags: HMW
LayerCount: 2
Fore
SplineSet
1111 254 m 1
 1111 0 l 1
 130 0 l 1
 130 1556 l 1
 430 1556 l 1
 430 254 l 1
 1111 254 l 1
EndSplineSet
Colour: ffff00
EndChar

StartChar: M
Encoding: 77 77 275
Width: 1875
Flags: HMW
LayerCount: 2
Fore
SplineSet
430 0 m 1
 130 0 l 1
 130 1556 l 1
 430 1556 l 1
 917 345 l 1
 1448 1556 l 1
 1745 1556 l 1
 1745 0 l 1
 1445 0 l 1
 1445 950 l 1
 1046 0 l 1
 775 0 l 1
 430 902 l 1
 430 0 l 1
EndSplineSet
Colour: ffff00
EndChar

StartChar: N
Encoding: 78 78 276
Width: 1476
Flags: HMW
LayerCount: 2
Fore
SplineSet
1046 1556 m 1
 1346 1556 l 1
 1346 0 l 1
 1061 0 l 1
 430 1049 l 1
 430 0 l 1
 130 0 l 1
 130 1556 l 1
 415 1556 l 1
 1046 506 l 1
 1046 1556 l 1
EndSplineSet
Colour: ffff00
EndChar

StartChar: O
Encoding: 79 79 277
Width: 1632
Flags: HMW
LayerCount: 2
Fore
SplineSet
816 1576 m 0
 1315 1576 1547 1180 1547 778 c 0
 1547 376 1315 -20 816 -20 c 0
 317 -20 85 376 85 778 c 0
 85 1180 317 1576 816 1576 c 0
816 1320 m 0
 531 1320 385 1100 385 778 c 0
 385 456 531 234 816 234 c 0
 1101 234 1247 456 1247 778 c 0
 1247 1100 1101 1320 816 1320 c 0
EndSplineSet
Colour: ffff00
EndChar

StartChar: P
Encoding: 80 80 278
Width: 1318
Flags: HMW
LayerCount: 2
Fore
SplineSet
430 0 m 1
 130 0 l 1
 130 1556 l 1
 745 1556 l 2
 1016 1556 1233 1355 1233 1096 c 0
 1233 835 1013 640 745 640 c 2
 430 640 l 1
 430 0 l 1
430 1300 m 1
 430 896 l 1
 745 896 l 2
 850 896 933 964 933 1096 c 0
 933 1229 847 1300 745 1300 c 2
 430 1300 l 1
EndSplineSet
Colour: ffff00
EndChar

StartChar: R
Encoding: 82 82 280
Width: 1363
Flags: HMW
LayerCount: 2
Fore
SplineSet
130 1556 m 1
 745 1556 l 2
 1016 1556 1233 1355 1233 1096 c 0
 1233 970 1180 856 1096 776 c 1
 1181 692 1233 578 1233 453 c 2
 1233 0 l 1
 933 0 l 1
 933 473 l 2
 933 588 845 660 745 660 c 2
 430 660 l 1
 430 0 l 1
 130 0 l 1
 130 1556 l 1
430 896 m 1
 745 896 l 2
 850 896 933 964 933 1096 c 0
 933 1229 847 1300 745 1300 c 2
 430 1300 l 1
 430 896 l 1
EndSplineSet
Colour: ffff00
EndChar

StartChar: S
Encoding: 83 83 281
Width: 1306
Flags: HMW
LayerCount: 2
Fore
SplineSet
80 498 m 1
 380 498 l 1
 380 345 469 234 667 234 c 0
 830 234 926 317 926 441 c 0
 926 530 850 614 619 673 c 0
 439 719 110 824 110 1135 c 0
 110 1418 375 1576 640 1576 c 0
 952 1576 1196 1384 1196 1057 c 1
 896 1057 l 1
 896 1209 823 1320 640 1320 c 0
 490 1320 410 1242 410 1125 c 0
 410 1038 481 952 705 895 c 0
 891 848 1226 741 1226 421 c 0
 1226 115 918 -20 667 -20 c 0
 368 -20 80 147 80 498 c 1
EndSplineSet
Colour: ffff00
EndChar

StartChar: T
Encoding: 84 84 282
Width: 1280
Flags: HMW
LayerCount: 2
Fore
SplineSet
790 0 m 1
 490 0 l 1
 490 1300 l 1
 40 1300 l 1
 40 1556 l 1
 1240 1556 l 1
 1240 1300 l 1
 790 1300 l 1
 790 0 l 1
EndSplineSet
Colour: ffff00
EndChar

StartChar: U
Encoding: 85 85 283
Width: 1426
Flags: HMW
LayerCount: 2
Fore
SplineSet
1001 1556 m 1
 1301 1556 l 1
 1301 530 l 2
 1301 204 1032 -20 713 -20 c 0
 394 -20 125 204 125 530 c 2
 125 1556 l 1
 425 1556 l 1
 425 510 l 2
 425 333 551 234 713 234 c 0
 875 234 1001 333 1001 510 c 2
 1001 1556 l 1
EndSplineSet
Colour: ffff00
EndChar

StartChar: V
Encoding: 86 86 284
Width: 1461
Flags: HMW
LayerCount: 2
Fore
SplineSet
1141 1556 m 1
 1461 1556 l 1
 859 0 l 1
 601 0 l 1
 0 1556 l 1
 320 1556 l 1
 730 420 l 1
 1141 1556 l 1
EndSplineSet
Colour: ffff00
EndChar

StartChar: W
Encoding: 87 87 285
Width: 2092
Flags: HMW
LayerCount: 2
Fore
SplineSet
1751 1556 m 1
 2062 1556 l 1
 1618 0 l 1
 1326 0 l 1
 1046 1135 l 1
 765 0 l 1
 473 0 l 1
 30 1556 l 1
 341 1556 l 1
 619 421 l 1
 900 1556 l 1
 1192 1556 l 1
 1472 421 l 1
 1751 1556 l 1
EndSplineSet
Colour: ffff00
EndChar

StartChar: X
Encoding: 88 88 286
Width: 1384
Flags: HMW
LayerCount: 2
Fore
SplineSet
1374 0 m 1
 1022 0 l 1
 692 578 l 1
 362 0 l 1
 10 0 l 1
 516 777 l 1
 10 1556 l 1
 362 1556 l 1
 692 977 l 1
 1022 1556 l 1
 1374 1556 l 1
 868 777 l 1
 1374 0 l 1
EndSplineSet
Colour: ffff00
EndChar

StartChar: Y
Encoding: 89 89 287
Width: 1357
Flags: HMW
LayerCount: 2
Fore
SplineSet
1010 1556 m 1
 1357 1556 l 1
 829 705 l 1
 829 0 l 1
 529 0 l 1
 529 705 l 1
 0 1556 l 1
 348 1556 l 1
 679 952 l 1
 1010 1556 l 1
EndSplineSet
Colour: ffff00
EndChar

StartChar: Z
Encoding: 90 90 288
Width: 1320
Flags: HMW
LayerCount: 2
Fore
SplineSet
60 1300 m 1
 60 1556 l 1
 1260 1556 l 1
 1260 1343 l 1
 422 254 l 1
 1260 254 l 1
 1260 0 l 1
 60 0 l 1
 60 212 l 1
 898 1300 l 1
 60 1300 l 1
EndSplineSet
Colour: ffff00
EndChar

StartChar: bracketleft
Encoding: 91 91 289
Width: 642
Flags: HMW
LayerCount: 2
Fore
SplineSet
592 254 m 1
 592 0 l 1
 70 0 l 1
 70 1556 l 1
 592 1556 l 1
 592 1300 l 1
 370 1300 l 1
 370 254 l 1
 592 254 l 1
EndSplineSet
Colour: ffff00
EndChar

StartChar: backslash
Encoding: 92 92 290
Width: 1019
Flags: HMW
LayerCount: 2
Fore
SplineSet
1025 95 m 1
 758 -40 l 1
 -6 1460 l 1
 261 1595 l 1
 1025 95 l 1
EndSplineSet
Colour: ffff
EndChar

StartChar: bracketright
Encoding: 93 93 291
Width: 642
Flags: HMW
LayerCount: 2
Fore
SplineSet
50 1300 m 1
 50 1556 l 1
 572 1556 l 1
 572 0 l 1
 50 0 l 1
 50 254 l 1
 272 254 l 1
 272 1300 l 1
 50 1300 l 1
EndSplineSet
Colour: ffff00
EndChar

StartChar: asciicircum
Encoding: 94 94 292
Width: 704
Flags: HMW
LayerCount: 2
Fore
SplineSet
637 1244 m 1
 543 1170 l 1
 352 1412 l 1
 161 1170 l 1
 67 1244 l 1
 303 1543 l 1
 401 1543 l 1
 637 1244 l 1
EndSplineSet
Colour: ff00
EndChar

StartChar: underscore
Encoding: 95 95 293
Width: 666
Flags: HMW
LayerCount: 2
Fore
SplineSet
716 297 m 1
 716 -3 l 1
 -50 -3 l 1
 -50 297 l 1
 716 297 l 1
EndSplineSet
Colour: ffff
EndChar

StartChar: grave
Encoding: 96 96 294
Width: 524
Flags: HMW
LayerCount: 2
Fore
SplineSet
417 1263 m 1
 316 1198 l 1
 107 1531 l 1
 208 1596 l 1
 417 1263 l 1
EndSplineSet
Colour: ff00
EndChar

StartChar: a
Encoding: 97 97 295
Width: 1102
Flags: HMW
LayerCount: 2
Fore
SplineSet
1042 0 m 1
 750 0 l 1
 717 113 694 220 694 394 c 2
 694 813 l 2
 694 889 659 947 535 947 c 0
 407 947 378 889 378 813 c 1
 78 813 l 1
 78 1074 298 1208 535 1208 c 0
 739 1208 994 1088 994 823 c 2
 994 394 l 2
 994 231 1015 91 1042 0 c 1
EndSplineSet
Refer: 428 57355 N 1 0 0 1 8 0 2
Colour: ffff00
EndChar

StartChar: b
Encoding: 98 98 296
Width: 1288
Flags: HMW
LayerCount: 2
Fore
SplineSet
420 0 m 1
 120 0 l 1
 120 1556 l 1
 420 1556 l 1
 420 0 l 1
EndSplineSet
Refer: 432 57359 N 1 0 0 1 50 0 2
Colour: ffff00
EndChar

StartChar: c
Encoding: 99 99 297
Width: 1155
Flags: HMW
LayerCount: 2
Fore
SplineSet
822 407 m 1
 1094 292 l 1
 1018 121 856 -20 604 -20 c 0
 221 -20 60 311 60 593 c 0
 60 875 219 1208 604 1208 c 0
 857 1208 1011 1070 1095 898 c 1
 822 782 l 1
 781 871 731 952 604 952 c 0
 451 952 360 808 360 593 c 0
 360 378 450 234 604 234 c 0
 730 234 778 316 822 407 c 1
EndSplineSet
Colour: ffff00
EndChar

StartChar: d
Encoding: 100 100 298
Width: 1288
Flags: HMW
LayerCount: 2
Fore
SplineSet
1168 0 m 1
 868 0 l 1
 868 1556 l 1
 1168 1556 l 1
 1168 0 l 1
EndSplineSet
Refer: 432 57359 N -1 0 0 -1 1238 1187 2
Colour: ffff00
EndChar

StartChar: e
Encoding: 101 101 299
Width: 1215
Flags: HMW
LayerCount: 2
Fore
SplineSet
378 496 m 1
 394 299 531 236 697 236 c 0
 805 236 924 262 1030 296 c 1
 1107 104 l 1
 952 20 796 -20 653 -20 c 0
 320 -20 60 200 60 593 c 0
 60 875 219 1208 604 1208 c 0
 986 1208 1155 878 1155 593 c 2
 1155 496 l 1
 378 496 l 1
377 690 m 1
 836 690 l 1
 801 852 727 952 604 952 c 0
 482 952 411 853 377 690 c 1
EndSplineSet
Colour: ffff00
EndChar

StartChar: f
Encoding: 102 102 300
Width: 726
Flags: HMW
LayerCount: 2
Fore
SplineSet
706 1626 m 1
 706 1425 l 1
 506 1425 l 2
 482 1425 470 1412 470 1387 c 2
 470 0 l 1
 170 0 l 1
 170 1387 l 2
 170 1551 306 1699 496 1699 c 1
 578 1699 651 1671 706 1626 c 1
EndSplineSet
Refer: 427 57354 N 1 0 0 1 -50 493 2
Colour: ffff00
EndChar

StartChar: g
Encoding: 103 103 301
Width: 1298
Flags: HMW
LayerCount: 2
Fore
SplineSet
878 1188 m 1
 1178 1188 l 1
 1178 144 l 2
 1178 -243 907 -430 607 -430 c 0
 426 -430 249 -366 101 -274 c 1
 214 -76 l 1
 311 -138 439 -175 558 -175 c 0
 729 -175 878 -100 878 81 c 2
 878 1188 l 1
EndSplineSet
Refer: 432 57359 N -1 0 0 -1 1248 1187 2
Colour: ffff00
EndChar

StartChar: h
Encoding: 104 104 302
Width: 1208
Flags: HMW
LayerCount: 2
Fore
SplineSet
410 0 m 1
 110 0 l 1
 110 1556 l 1
 410 1556 l 1
 410 0 l 1
EndSplineSet
Refer: 430 57357 N 1 0 0 1 60 0 2
Colour: ffff00
EndChar

StartChar: k
Encoding: 107 107 305
Width: 1167
Flags: HMW
LayerCount: 2
Fore
SplineSet
778 1188 m 1
 1167 1188 l 1
 646 592 l 1
 1128 0 l 1
 749 0 l 1
 450 375 l 1
 420 342 l 1
 420 0 l 1
 120 0 l 1
 120 1556 l 1
 420 1556 l 1
 420 772 l 1
 778 1188 l 1
EndSplineSet
Colour: ffff00
EndChar

StartChar: l
Encoding: 108 108 306
Width: 560
Flags: HMW
LayerCount: 2
Fore
SplineSet
430 0 m 1
 130 0 l 1
 130 1556 l 1
 430 1556 l 1
 430 0 l 1
EndSplineSet
Colour: ffff00
EndChar

StartChar: m
Encoding: 109 109 307
Width: 1756
Flags: HMW
LayerCount: 2
Fore
SplineSet
120 1188 m 1
 420 1188 l 1
 420 0 l 1
 120 0 l 1
 120 1188 l 1
EndSplineSet
Refer: 429 57356 N 1 0 0 1 -498 0 2
Refer: 429 57356 N 1 0 0 1 110 0 2
Colour: ffff00
EndChar

StartChar: n
Encoding: 110 110 308
Width: 1208
Flags: HMW
LayerCount: 2
Fore
SplineSet
410 0 m 1
 110 0 l 1
 110 1188 l 1
 410 1188 l 1
 410 0 l 1
EndSplineSet
Refer: 430 57357 N 1 0 0 1 60 0 2
Colour: ffff00
EndChar

StartChar: o
Encoding: 111 111 309
Width: 1218
Flags: HMW
LayerCount: 2
Fore
SplineSet
609 952 m 0
 456 952 365 808 365 593 c 0
 365 378 455 234 609 234 c 0
 763 234 853 378 853 593 c 0
 853 808 762 952 609 952 c 0
609 1208 m 0
 994 1208 1153 875 1153 593 c 0
 1153 311 992 -20 609 -20 c 0
 226 -20 65 311 65 593 c 0
 65 875 224 1208 609 1208 c 0
EndSplineSet
Colour: ffff00
EndChar

StartChar: p
Encoding: 112 112 310
Width: 1288
Flags: HMW
LayerCount: 2
Fore
SplineSet
120 1188 m 1
 420 1188 l 1
 420 -410 l 1
 120 -410 l 1
 120 1188 l 1
EndSplineSet
Refer: 432 57359 N 1 0 0 1 50 0 2
Colour: ffff00
EndChar

StartChar: q
Encoding: 113 113 311
Width: 1288
Flags: HMW
LayerCount: 2
Fore
SplineSet
868 1188 m 1
 1168 1188 l 1
 1168 -410 l 1
 868 -410 l 1
 868 1188 l 1
EndSplineSet
Refer: 432 57359 N -1 0 0 -1 1238 1187 2
Colour: ffff00
EndChar

StartChar: r
Encoding: 114 114 312
Width: 804
Flags: HMW
LayerCount: 2
Fore
SplineSet
120 1188 m 1
 420 1188 l 1
 420 0 l 1
 120 0 l 1
 120 1188 l 1
EndSplineSet
Refer: 431 57358 N 1 0 0 1 70 0 2
Colour: ffff00
EndChar

StartChar: s
Encoding: 115 115 313
Width: 1079
Flags: HMW
LayerCount: 2
Fore
SplineSet
60 374 m 1
 360 374 l 1
 360 294 414 234 539 234 c 0
 664 234 719 297 719 361 c 0
 719 422 690 488 517 505 c 0
 389 518 75 573 75 826 c 0
 75 1105 343 1208 539 1208 c 0
 736 1208 1002 1105 1002 826 c 1
 702 826 l 1
 702 893 657 952 539 952 c 0
 426 952 375 898 375 846 c 0
 375 799 392 738 557 719 c 0
 696 703 1019 644 1019 374 c 0
 1019 87 743 -20 539 -20 c 0
 335 -20 60 87 60 374 c 1
EndSplineSet
Colour: ffff00
EndChar

StartChar: t
Encoding: 116 116 314
Width: 736
Flags: HMW
LayerCount: 2
Fore
SplineSet
706 264 m 1
 706 63 l 1
 651 18 578 -10 496 -10 c 1
 306 -10 170 138 170 302 c 2
 170 1489 l 1
 470 1489 l 1
 470 302 l 2
 470 277 482 264 506 264 c 2
 706 264 l 1
EndSplineSet
Refer: 427 57354 N 1 0 0 1 -50 493 2
Colour: ffff00
EndChar

StartChar: u
Encoding: 117 117 315
Width: 1208
Flags: HMW
LayerCount: 2
Fore
SplineSet
798 1188 m 1
 1098 1188 l 1
 1098 0 l 1
 798 0 l 1
 798 1188 l 1
EndSplineSet
Refer: 430 57357 N -1 0 0 -1 1148 1188 2
Colour: ffff00
EndChar

StartChar: v
Encoding: 118 118 316
Width: 1183
Flags: HMW
LayerCount: 2
Fore
SplineSet
863 1188 m 1
 1183 1188 l 1
 730 0 l 1
 455 0 l 1
 0 1188 l 1
 320 1188 l 1
 592 418 l 1
 863 1188 l 1
EndSplineSet
Colour: ffff00
EndChar

StartChar: w
Encoding: 119 119 317
Width: 1637
Flags: HMW
LayerCount: 2
Fore
SplineSet
1295 1188 m 1
 1607 1188 l 1
 1268 0 l 1
 989 0 l 1
 819 750 l 1
 649 0 l 1
 371 0 l 1
 30 1188 l 1
 342 1188 l 1
 509 458 l 1
 672 1188 l 1
 965 1188 l 1
 1129 458 l 1
 1295 1188 l 1
EndSplineSet
Colour: ffff00
EndChar

StartChar: x
Encoding: 120 120 318
Width: 1351
Flags: HMW
LayerCount: 2
Fore
SplineSet
966 1188 m 1
 1341 1188 l 1
 863 578 l 1
 1316 0 l 1
 940 0 l 1
 676 411 l 1
 410 0 l 1
 33 0 l 1
 488 578 l 1
 10 1188 l 1
 385 1188 l 1
 676 747 l 1
 966 1188 l 1
EndSplineSet
Colour: ffff00
EndChar

StartChar: y
Encoding: 121 121 319
Width: 1182
Flags: HMW
LayerCount: 2
Fore
SplineSet
862 1188 m 1
 1182 1188 l 1
 761 91 l 2
 680 -118 562 -410 208 -410 c 2
 104 -410 l 1
 104 -134 l 1
 208 -134 l 2
 310 -134 368 -86 440 78 c 1
 435 78 l 1
 0 1188 l 1
 321 1188 l 1
 594 442 l 1
 862 1188 l 1
EndSplineSet
Colour: ffff00
EndChar

StartChar: z
Encoding: 122 122 320
Width: 1081
Flags: HMW
LayerCount: 2
Fore
SplineSet
80 932 m 1
 80 1188 l 1
 1001 1188 l 1
 1001 976 l 1
 428 254 l 1
 1001 254 l 1
 1001 0 l 1
 80 0 l 1
 80 212 l 1
 652 932 l 1
 80 932 l 1
EndSplineSet
Colour: ffff00
EndChar

StartChar: bar
Encoding: 124 124 321
Width: 440
Flags: HMW
LayerCount: 2
Fore
SplineSet
70 1556 m 1
 370 1556 l 1
 370 -420 l 1
 70 -420 l 1
 70 1556 l 1
EndSplineSet
Colour: ffff
EndChar

StartChar: asciitilde
Encoding: 126 126 322
Width: 868
Flags: HMW
LayerCount: 2
Fore
SplineSet
55 1234 m 1
 111 1365 199 1431 288 1431 c 0
 356 1431 409 1408 470 1362 c 0
 521 1324 541 1316 581 1316 c 0
 605 1316 659 1346 704 1447 c 1
 814 1399 l 1
 759 1271 673 1196 581 1196 c 0
 512 1196 456 1221 398 1266 c 0
 346 1305 329 1311 288 1311 c 0
 259 1311 209 1286 165 1186 c 1
 55 1234 l 1
EndSplineSet
Colour: ff00
EndChar

StartChar: cent
Encoding: 162 162 324
Width: 1155
Flags: HMW
LayerCount: 2
Fore
SplineSet
754 1000 m 1
 454 1000 l 1
 454 1556 l 1
 754 1556 l 1
 754 1000 l 1
754 -365 m 1
 454 -365 l 1
 454 187 l 1
 754 187 l 1
 754 -365 l 1
EndSplineSet
Refer: 297 99 N 1 0 0 1 0 0 2
Colour: ffff00
EndChar

StartChar: sterling
Encoding: 163 163 325
Width: 1314
Flags: HMW
LayerCount: 2
Fore
SplineSet
624 1300 m 0
 586 1300 537 1266 537 1200 c 2
 537 334 l 2
 537 307 535 279 530 254 c 1
 1214 254 l 1
 1214 0 l 1
 100 0 l 1
 100 254 l 1
 188 254 237 260 237 334 c 2
 237 1180 l 2
 237 1377 397 1556 624 1556 c 0
 856 1556 986 1404 1015 1197 c 1
 719 1155 l 1
 714 1230 692 1300 624 1300 c 0
EndSplineSet
Refer: 427 57354 N 1 0 0 1 50 72 2
Colour: ffff00
EndChar

StartChar: currency
Encoding: 164 164 326
Width: 1431
Flags: HMW
LayerCount: 2
Fore
SplineSet
588 979 m 1
 346 817 l 1
 50 1156 l 1
 292 1318 l 1
 588 979 l 1
346 368 m 1
 588 206 l 1
 292 -133 l 1
 50 29 l 1
 346 368 l 1
1085 817 m 1
 843 979 l 1
 1139 1318 l 1
 1381 1156 l 1
 1085 817 l 1
843 206 m 1
 1085 368 l 1
 1381 29 l 1
 1139 -133 l 1
 843 206 l 1
EndSplineSet
Refer: 309 111 N 1 0 0 1 122 0 2
Colour: ffff00
EndChar

StartChar: brokenbar
Encoding: 166 166 328
Width: 440
Flags: HMW
LayerCount: 2
Fore
SplineSet
370 897 m 1
 70 897 l 1
 70 1556 l 1
 370 1556 l 1
 370 897 l 1
370 0 m 1
 70 0 l 1
 70 641 l 1
 370 641 l 1
 370 0 l 1
EndSplineSet
Colour: ffff
EndChar

StartChar: section
Encoding: 167 167 329
Width: 1152
Flags: HMW
LayerCount: 2
Fore
SplineSet
102 348 m 1
 402 348 l 1
 402 270 453 232 576 232 c 0
 700 232 752 271 752 317 c 1
 752 356 746 378 553 404 c 0
 410 423 100 466 100 754 c 0
 100 855 137 940 194 1002 c 1
 138 1050 100 1118 100 1208 c 0
 100 1492 373 1598 576 1598 c 0
 779 1598 1051 1492 1051 1208 c 1
 751 1208 l 1
 751 1285 700 1324 576 1324 c 0
 452 1324 400 1285 400 1237 c 1
 400 1195 407 1178 600 1149 c 0
 747 1127 1052 1078 1052 790 c 0
 1052 691 1017 610 962 550 c 1
 1015 503 1052 435 1052 348 c 0
 1052 64 779 -44 576 -44 c 0
 371 -44 102 66 102 348 c 1
565 876 m 1
 453 873 400 832 400 754 c 0
 400 719 406 703 587 678 c 1
 707 681 752 716 752 790 c 0
 752 834 742 849 565 876 c 1
EndSplineSet
Colour: ffff00
EndChar

StartChar: copyright
Encoding: 169 169 331
Width: 1870
Flags: HMW
LayerCount: 2
Fore
SplineSet
400 800 m 0
 400 488 650 254 935 254 c 0
 1220 254 1470 488 1470 800 c 0
 1470 1111 1220 1346 935 1346 c 0
 650 1346 400 1111 400 800 c 0
100 800 m 0
 100 1245 464 1620 935 1620 c 0
 1406 1620 1770 1245 1770 800 c 0
 1770 356 1407 -22 935 -22 c 0
 463 -22 100 356 100 800 c 0
1282 1069 m 1
 1120 967 l 1
 1073 1024 1002 1054 935 1054 c 0
 808 1054 695 948 695 801 c 0
 695 654 807 548 935 548 c 0
 1002 548 1073 579 1120 636 c 1
 1282 534 l 1
 1199 433 1070 374 935 374 c 0
 671 374 495 582 495 801 c 0
 495 1020 670 1230 935 1230 c 0
 1070 1230 1199 1170 1282 1069 c 1
EndSplineSet
Colour: ffff00
EndChar

StartChar: ordfeminine
Encoding: 170 170 332
Width: 747
Flags: HMW
LayerCount: 2
Fore
SplineSet
480 1331 m 1
 480 1379 l 2
 480 1436 435 1467 350 1467 c 0
 259 1467 223 1436 223 1369 c 1
 103 1369 l 1
 103 1530 235 1587 350 1587 c 0
 457 1587 600 1534 600 1379 c 2
 600 1124 l 2
 600 1035 623 1019 642 1006 c 1
 568 912 l 1
 546 929 526 949 511 977 c 1
 456 929 388 906 310 906 c 0
 185 906 90 988 90 1103 c 0
 90 1277 250 1335 411 1335 c 0
 435 1335 458 1333 480 1331 c 1
480 1211 m 1
 455 1214 436 1215 411 1215 c 0
 262 1215 210 1174 210 1103 c 0
 210 1062 235 1026 310 1026 c 0
 395 1026 448 1060 480 1135 c 1
 480 1211 l 1
EndSplineSet
Colour: ff00
EndChar

StartChar: logicalnot
Encoding: 172 172 333
Width: 1073
Flags: HMW
LayerCount: 2
Fore
SplineSet
50 444 m 1
 50 720 l 1
 1003 720 l 1
 1003 260 l 1
 703 260 l 1
 703 444 l 1
 50 444 l 1
EndSplineSet
Colour: ffff00
EndChar

StartChar: registered
Encoding: 174 174 335
Width: 1870
Flags: HMW
LayerCount: 2
Fore
SplineSet
100 800 m 0
 100 1245 464 1620 935 1620 c 0
 1406 1620 1770 1245 1770 800 c 0
 1770 356 1407 -22 935 -22 c 0
 463 -22 100 356 100 800 c 0
400 800 m 0
 400 488 650 254 935 254 c 0
 1220 254 1470 488 1470 800 c 0
 1470 1111 1220 1346 935 1346 c 0
 650 1346 400 1111 400 800 c 0
820 794 m 1
 966 794 l 2
 1053 794 1117 844 1117 926 c 0
 1117 1009 1053 1060 966 1060 c 2
 820 1060 l 1
 820 794 l 1
1285 468 m 1
 1123 366 l 1
 915 620 l 1
 820 620 l 1
 820 417 l 1
 620 417 l 1
 620 1234 l 1
 966 1234 l 2
 1157 1234 1317 1105 1317 926 c 0
 1317 802 1240 704 1132 655 c 1
 1285 468 l 1
EndSplineSet
Colour: ffff00
EndChar

StartChar: degree
Encoding: 176 176 337
Width: 646
Flags: HMW
LayerCount: 2
Fore
SplineSet
455 1500 m 0
 455 1575 398 1632 323 1632 c 0
 248 1632 191 1575 191 1500 c 0
 191 1425 248 1368 323 1368 c 0
 398 1368 455 1425 455 1500 c 0
575 1500 m 0
 575 1360 463 1248 323 1248 c 0
 183 1248 71 1360 71 1500 c 0
 71 1640 183 1752 323 1752 c 0
 463 1752 575 1640 575 1500 c 0
EndSplineSet
Colour: ff00
EndChar

StartChar: uni00B2
Encoding: 178 178 339
Width: 658
Flags: HMW
LayerCount: 2
Fore
SplineSet
90 931 m 1
 90 1046 l 1
 371 1293 l 2
 399 1321 408 1331 408 1375 c 0
 408 1439 366 1467 309 1467 c 0
 246 1467 210 1436 210 1365 c 1
 90 1365 l 1
 90 1515 200 1587 309 1587 c 0
 412 1587 528 1518 528 1375 c 0
 528 1297 491 1239 454 1208 c 2
 270 1051 l 1
 518 1051 l 1
 518 931 l 1
 90 931 l 1
EndSplineSet
Colour: ff00
EndChar

StartChar: uni00B3
Encoding: 179 179 340
Width: 606
Flags: HMW
LayerCount: 2
Fore
SplineSet
210 1383 m 1
 90 1383 l 1
 90 1505 187 1587 303 1587 c 0
 413 1587 516 1508 516 1393 c 0
 516 1340 492 1292 457 1259 c 1
 492 1226 516 1178 516 1125 c 0
 516 1010 413 931 303 931 c 0
 187 931 90 1013 90 1135 c 1
 210 1135 l 1
 210 1092 239 1051 303 1051 c 0
 361 1051 396 1090 396 1125 c 0
 396 1160 361 1199 303 1199 c 2
 232 1199 l 1
 232 1319 l 1
 303 1319 l 2
 361 1319 396 1358 396 1393 c 0
 396 1428 361 1467 303 1467 c 0
 239 1467 210 1426 210 1383 c 1
EndSplineSet
Colour: ff00
EndChar

StartChar: acute
Encoding: 180 180 341
Width: 517
Flags: HMW
LayerCount: 2
Fore
SplineSet
312 1595 m 1
 413 1532 l 1
 205 1199 l 1
 104 1262 l 1
 312 1595 l 1
EndSplineSet
Colour: ff00
EndChar

StartChar: mu
Encoding: 181 181 342
Width: 1168
Flags: HMW
LayerCount: 2
Fore
SplineSet
100 1188 m 1
 400 1188 l 1
 400 438 l 2
 400 334 426 275 534 275 c 0
 684 275 768 351 768 492 c 2
 768 1188 l 1
 1068 1188 l 1
 1068 0 l 1
 768 0 l 1
 768 80 l 1
 689 28 595 -1 494 -1 c 0
 460 -1 427 2 400 7 c 1
 400 -787 l 1
 100 -787 l 1
 100 1188 l 1
EndSplineSet
EndChar

StartChar: paragraph
Encoding: 182 182 343
Width: 1366
Flags: HMW
LayerCount: 2
Fore
SplineSet
708 1300 m 1
 616 1300 l 2
 515 1300 400 1214 400 1023 c 0
 400 832 515 746 616 746 c 2
 708 746 l 1
 708 1300 l 1
1266 -420 m 1
 1046 -420 l 1
 1046 1300 l 1
 928 1300 l 1
 928 -420 l 1
 708 -420 l 1
 708 492 l 1
 616 492 l 2
 317 492 100 734 100 1023 c 0
 100 1312 316 1556 616 1556 c 2
 1266 1556 l 1
 1266 -420 l 1
EndSplineSet
Colour: ffff00
EndChar

StartChar: cedilla
Encoding: 184 184 345
Width: 723
Flags: HMW
LayerCount: 2
Fore
SplineSet
164 -263 m 1
 205 -306 263 -327 342 -327 c 0
 436 -327 500 -282 500 -246 c 0
 500 -161 402 -40 307 33 c 1
 375 133 l 1
 506 39 610 -94 610 -246 c 0
 610 -400 454 -447 342 -447 c 0
 239 -447 157 -414 91 -341 c 1
 164 -263 l 1
EndSplineSet
Colour: ffff00
EndChar

StartChar: uni00B9
Encoding: 185 185 346
Width: 457
Flags: HMW
LayerCount: 2
Fore
SplineSet
79 1325 m 1
 79 1445 l 1
 219 1445 l 1
 220 1537 l 1
 340 1537 l 1
 340 891 l 1
 220 891 l 1
 220 1325 l 1
 79 1325 l 1
EndSplineSet
Colour: ff00
EndChar

StartChar: onequarter
Encoding: 188 188 348
Width: 1965
Flags: HMW
LayerCount: 2
Fore
SplineSet
100 1256 m 1
 100 1490 l 1
 264 1490 l 2
 315 1490 321 1498 321 1563 c 2
 321 1712 l 1
 621 1712 l 1
 621 552 l 1
 321 552 l 1
 321 1266 l 1
 275 1258 231 1256 182 1256 c 2
 100 1256 l 1
1865 126 m 1
 1865 -110 l 1
 1769 -110 l 1
 1769 -336 l 1
 1469 -336 l 1
 1469 -110 l 1
 955 -110 l 1
 955 62 l 1
 1496 910 l 1
 1769 910 l 1
 1769 126 l 1
 1865 126 l 1
1469 126 m 1
 1469 420 l 1
 1286 126 l 1
 1469 126 l 1
663 3 m 1
 410 149 l 1
 1501 1596 l 1
 1754 1450 l 1
 663 3 l 1
EndSplineSet
Colour: ffff00
EndChar

StartChar: onehalf
Encoding: 189 189 349
Width: 2096
Flags: HMW
LayerCount: 2
Fore
SplineSet
660 3 m 1
 407 149 l 1
 1499 1596 l 1
 1752 1450 l 1
 660 3 l 1
2056 -128 m 1
 2056 -384 l 1
 1169 -384 l 1
 1169 -173 l 1
 1688 337 l 2
 1740 386 1768 454 1768 515 c 0
 1768 594 1720 662 1612 662 c 0
 1510 662 1470 584 1470 460 c 1
 1170 460 l 1
 1170 745 1360 916 1612 916 c 0
 1832 916 2056 763 2056 490 c 0
 2056 328 1981 220 1902 145 c 2
 1635 -128 l 1
 2056 -128 l 1
100 1256 m 1
 100 1490 l 1
 264 1490 l 2
 315 1490 321 1498 321 1563 c 2
 321 1712 l 1
 621 1712 l 1
 621 552 l 1
 321 552 l 1
 321 1266 l 1
 275 1258 231 1256 182 1256 c 2
 100 1256 l 1
EndSplineSet
Colour: ffff00
EndChar

StartChar: threequarters
Encoding: 190 190 350
Width: 2140
Flags: HMW
LayerCount: 2
Fore
SplineSet
2040 126 m 1
 2040 -110 l 1
 1944 -110 l 1
 1944 -336 l 1
 1644 -336 l 1
 1644 -110 l 1
 1130 -110 l 1
 1130 62 l 1
 1671 910 l 1
 1944 910 l 1
 1944 126 l 1
 2040 126 l 1
1644 126 m 1
 1644 420 l 1
 1461 126 l 1
 1644 126 l 1
426 996 m 2
 310 996 l 1
 310 1232 l 1
 426 1232 l 2
 554 1232 585 1271 585 1375 c 0
 585 1430 526 1510 443 1510 c 0
 352 1510 300 1463 300 1327 c 1
 0 1327 l 1
 0 1619 202 1764 443 1764 c 0
 677 1764 885 1598 885 1375 c 0
 885 1275 854 1184 792 1114 c 1
 854 1044 885 954 885 854 c 0
 885 631 677 464 443 464 c 0
 202 464 0 609 0 901 c 1
 300 901 l 1
 300 766 351 720 443 720 c 0
 527 720 585 799 585 854 c 0
 585 957 555 996 426 996 c 2
838 3 m 1
 585 149 l 1
 1677 1596 l 1
 1930 1450 l 1
 838 3 l 1
EndSplineSet
Colour: ffff00
EndChar

StartChar: AE
Encoding: 198 198 358
Width: 1963
Flags: HMW
LayerCount: 2
Fore
SplineSet
849 1068 m 1
 848 1068 l 1
 625 610 l 1
 849 610 l 1
 849 1068 l 1
758 1556 m 1
 1883 1556 l 1
 1883 1300 l 1
 1149 1300 l 1
 1149 882 l 1
 1883 882 l 1
 1883 648 l 1
 1149 648 l 1
 1149 254 l 1
 1883 254 l 1
 1883 0 l 1
 849 0 l 1
 849 374 l 1
 510 374 l 1
 339 0 l 1
 10 0 l 1
 758 1556 l 1
EndSplineSet
Colour: ffff00
EndChar

StartChar: Thorn
Encoding: 222 222 382
Width: 1229
Flags: HMW
LayerCount: 2
Fore
SplineSet
440 560 m 1
 627 560 l 2
 782 560 869 638 869 779 c 0
 869 920 782 998 627 998 c 2
 440 998 l 1
 440 560 l 1
440 0 m 1
 140 0 l 1
 140 1556 l 1
 440 1556 l 1
 440 1232 l 1
 627 1232 l 2
 895 1232 1169 1096 1169 779 c 0
 1169 462 895 326 627 326 c 2
 440 326 l 1
 440 0 l 1
EndSplineSet
Colour: ffff00
EndChar

StartChar: germandbls
Encoding: 223 223 383
Width: 1269
Flags: HMW
LayerCount: 2
Fore
SplineSet
567 0 m 1
 567 274 l 1
 844 274 899 276 899 334 c 0
 899 369 877 395 806 445 c 0
 735 495 604 589 604 762 c 0
 604 875 653 942 697 1002 c 0
 733 1051 765 1097 765 1160 c 0
 765 1251 717 1320 607 1320 c 0
 492 1320 450 1254 450 1124 c 2
 450 0 l 1
 150 0 l 1
 150 1124 l 2
 150 1346 294 1576 607 1576 c 0
 912 1576 1065 1349 1065 1124 c 0
 1065 1004 1010 894 943 843 c 0
 912 819 898 797 898 775 c 0
 898 740 932 704 990 663 c 0
 1071 605 1199 501 1199 323 c 0
 1199 55 1070 0 567 0 c 1
EndSplineSet
Colour: ffff00
EndChar

StartChar: ae
Encoding: 230 230 390
Width: 1849
Flags: HMW
LayerCount: 2
Fore
SplineSet
1012 496 m 1
 1035 302 1155 230 1305 230 c 0
 1406 230 1522 263 1630 313 c 1
 1741 104 l 1
 1572 21 1409 -19 1263 -19 c 0
 1067 -19 904 54 803 198 c 1
 712 56 548 -20 411 -20 c 0
 201 -20 60 128 60 342 c 0
 60 663 397 724 643 724 c 0
 660 724 677 724 694 723 c 1
 694 793 l 2
 694 869 659 952 535 952 c 0
 407 952 378 889 378 813 c 1
 78 813 l 1
 78 1074 298 1208 535 1208 c 0
 652 1208 786 1162 879 1072 c 1
 965 1154 1084 1208 1238 1208 c 0
 1620 1208 1789 878 1789 593 c 2
 1789 496 l 1
 1012 496 l 1
1011 690 m 1
 1470 690 l 1
 1435 852 1361 952 1238 952 c 0
 1116 952 1045 853 1011 690 c 1
694 526 m 1
 676 527 658 528 643 528 c 0
 475 528 348 465 348 365 c 0
 348 279 403 242 470 242 c 0
 570 242 694 324 694 448 c 2
 694 526 l 1
EndSplineSet
EndChar

StartChar: eth
Encoding: 240 240 400
Width: 1188
Flags: HMW
LayerCount: 2
Fore
SplineSet
594 952 m 0
 441 952 350 808 350 593 c 0
 350 378 440 234 594 234 c 0
 748 234 838 378 838 593 c 0
 838 808 747 952 594 952 c 0
594 1208 m 0
 646.483810818 1208 694.767733695 1201.81166954 739.021502535 1190.40781208 c 1
 701.949344632 1244.73573114 660.153328475 1296.89116238 615.09942099 1343.51748126 c 1
 487.901367188 1240.4375 l 1
 361.98046875 1395.8203125 l 1
 456.822715048 1472.67948353 l 1
 408.522119615 1501.82217886 358.710442635 1522.51523214 308.674804688 1531.81152344 c 1
 345.208007812 1728.44628906 l 1
 444.563435203 1709.98688312 538.002775958 1666.85565849 623.108950953 1607.43612145 c 1
 746.98046875 1707.8203125 l 1
 872.901367188 1552.4375 l 1
 776.670599814 1474.45308592 l 1
 1016.10420394 1223.33550646 1138.00001061 931.155879049 1138 593 c 0
 1138 311 977 -20 594 -20 c 0
 211 -20 50 311 50 593 c 0
 50 875 209 1208 594 1208 c 0
EndSplineSet
EndChar

StartChar: dotlessi
Encoding: 305 305 415
Width: 500
Flags: HMW
LayerCount: 2
Fore
SplineSet
100 1188 m 1
 400 1188 l 1
 400 0 l 1
 100 0 l 1
 100 1188 l 1
EndSplineSet
Colour: ffff00
EndChar

StartChar: OE
Encoding: 338 338 416
Width: 1735
Flags: HMW
LayerCount: 2
Fore
SplineSet
654 289 m 1
 654 1266 l 1
 457 1218 350 1051 350 778 c 0
 350 505 458 337 654 289 c 1
1635 1556 m 1
 1635 1300 l 1
 954 1300 l 1
 954 896 l 1
 1635 896 l 1
 1635 660 l 1
 954 660 l 1
 954 254 l 1
 1635 254 l 1
 1635 0 l 1
 781 0 l 2
 282 0 50 376 50 778 c 0
 50 1180 282 1556 781 1556 c 2
 1635 1556 l 1
EndSplineSet
Colour: ffff00
EndChar

StartChar: uniE003
Encoding: 57347 57347 418
Width: 1762
Flags: HMW
LayerCount: 2
Fore
SplineSet
1561 1579 m 1
 1706 1428 l 1
 201 -24 l 1
 56 127 l 1
 1561 1579 l 1
EndSplineSet
Colour: ff00ff
EndChar

StartChar: uniE004
Encoding: 57348 57348 419
Width: 1088
Flags: HMW
LayerCount: 2
Fore
SplineSet
214 -16 m 1
 49 113 l 1
 874 1173 l 1
 1039 1044 l 1
 214 -16 l 1
EndSplineSet
Colour: ff00ff
EndChar

StartChar: uniE005
Encoding: 57349 57349 421
Width: 1462
Flags: HMW
LayerCount: 2
Fore
SplineSet
1411 87 m 1
 1251 -47 l 1
 744 559 l 1
 904 693 l 1
 1411 87 l 1
EndSplineSet
Colour: ff00ff
EndChar

StartChar: uniE006
Encoding: 57350 57350 422
Width: 1146
Flags: HMW
LayerCount: 2
Fore
SplineSet
206 117 m 1
 206 327 l 1
 940 327 l 1
 940 117 l 1
 206 117 l 1
206 443 m 1
 206 653 l 1
 940 653 l 1
 940 443 l 1
 206 443 l 1
EndSplineSet
Colour: ff00ff
EndChar

StartChar: uniE007
Encoding: 57351 57351 423
Width: 869
Flags: HMW
LayerCount: 2
Fore
SplineSet
579 1609 m 1
 550 1624 505 1639 472 1639 c 0
 394 1639 355 1587 355 1550 c 0
 355 1502 381 1491 452 1469 c 0
 510 1451 617 1416 617 1298 c 0
 617 1160 461 1099 344 1099 c 0
 272 1099 210 1114 156 1140 c 1
 207 1248 l 1
 243 1231 285 1219 344 1219 c 0
 444 1219 497 1260 497 1292 c 0
 497 1316 485 1332 416 1353 c 0
 350 1373 235 1416 235 1554 c 0
 235 1669 344 1759 472 1759 c 0
 533 1759 581 1739 625 1719 c 1
 579 1609 l 1
EndSplineSet
Colour: ffff
EndChar

StartChar: uniE008
Encoding: 57352 57352 424
Width: 1454
Flags: HMW
LayerCount: 2
Fore
SplineSet
495 1208 m 0
 495 1272 448 1321 392 1321 c 0
 336 1321 288 1270 288 1208 c 0
 288 1147 334 1102 392 1102 c 0
 448 1102 495 1147 495 1208 c 0
688 1209 m 0
 688 1046 559 910 392 910 c 0
 226 910 95 1046 95 1209 c 0
 95 1365 217 1513 392 1513 c 0
 568 1513 688 1364 688 1209 c 0
EndSplineSet
Colour: ff00ff
EndChar

StartChar: uniE009
Encoding: 57353 57353 425
Width: 1146
Flags: HMW
LayerCount: 2
Fore
SplineSet
468 1710 m 1
 678 1710 l 1
 678 -167 l 1
 468 -167 l 1
 468 1710 l 1
EndSplineSet
Colour: ff00ff
EndChar

StartChar: uni0237
Encoding: 567 567 426
Width: 500
Flags: HMW
LayerCount: 2
Fore
SplineSet
100 -118 m 2
 100 1188 l 1
 400 1188 l 1
 400 -118 l 2
 400 -282 264 -430 74 -430 c 1
 -8 -430 -81 -402 -136 -357 c 1
 -136 -156 l 1
 64 -156 l 2
 88 -156 100 -143 100 -118 c 2
EndSplineSet
Colour: ffff00
EndChar

StartChar: uniE00A
Encoding: 57354 57354 427
Width: 1214
Flags: HMW
LayerCount: 2
Fore
SplineSet
70 485 m 1
 70 695 l 1
 756 695 l 1
 756 485 l 1
 70 485 l 1
EndSplineSet
Colour: ff00ff
EndChar

StartChar: uniE00B
Encoding: 57355 57355 428
Width: 1108
Flags: HMW
LayerCount: 2
Fore
SplineSet
931 680 m 1
 804 512 l 1
 750 522 695 528 635 528 c 0
 467 528 340 465 340 352 c 0
 340 299 376 241 472 241 c 0
 585 241 686 329 686 438 c 1
 866 438 l 17
 866 137 606 -10 403 -10 c 0
 193 -10 52 128 52 342 c 0
 52 663 389 724 635 724 c 0
 744 724 842 703 931 680 c 1
EndSplineSet
Colour: ffff00
EndChar

StartChar: uniE00C
Encoding: 57356 57356 429
Width: 1536
Flags: HMW
LayerCount: 2
Fore
SplineSet
858 784 m 1
 858 985 946 1208 1192 1208 c 0
 1506 1208 1526 905 1526 784 c 2
 1526 0 l 1
 1226 0 l 1
 1226 784 l 2
 1226 862 1171 932 1072 932 c 0
 981 932 920 863 918 784 c 1
 858 784 l 1
EndSplineSet
Colour: ffff00
EndChar

StartChar: uniE00D
Encoding: 57357 57357 430
Width: 1068
Flags: HMW
LayerCount: 2
Fore
SplineSet
290 715 m 1
 290 996 391 1208 664 1208 c 0
 1001 1208 1038 908 1038 769 c 2
 1038 0 l 1
 738 0 l 1
 738 715 l 2
 738 856 675 932 544 932 c 0
 414 932 350 856 350 715 c 1
 290 715 l 1
EndSplineSet
Colour: ffff00
EndChar

StartChar: uniE00E
Encoding: 57358 57358 431
Width: 754
Flags: HMW
LayerCount: 2
Fore
SplineSet
350 553 m 1
 170 553 l 1
 170 838 270 1188 641 1188 c 2
 704 1188 l 1
 704 912 l 1
 581 912 l 2
 418 912 350 772 350 553 c 1
EndSplineSet
Colour: ffff00
EndChar

StartChar: uniE00F
Encoding: 57359 57359 432
Width: 1158
Flags: HMW
LayerCount: 2
Fore
SplineSet
709 1208 m 0
 1067 1208 1178 868 1178 593 c 0
 1178 317 1066 -20 709 -20 c 0
 352 -20 240 317 240 593 c 0
 240 868 351 1208 709 1208 c 0
624 932 m 0
 471 932 370 808 370 593 c 0
 370 378 470 254 624 254 c 0
 778 254 878 378 878 593 c 0
 878 808 777 932 624 932 c 0
EndSplineSet
Colour: ffff00
EndChar

StartChar: quoteright
Encoding: 8217 8217 434
Width: 598
Flags: HMW
LayerCount: 2
Fore
SplineSet
322 818 m 1
 256 866 l 1
 309 927 358 1043 358 1138 c 0
 358 1249 120 1117 120 1303 c 0
 120 1402 169 1483 290 1483 c 0
 413 1483 478 1388 478 1251 c 0
 478 1071 401 917 322 818 c 1
EndSplineSet
EndChar

StartChar: quoteleft
Encoding: 8216 8216 435
Width: 598
Flags: HMW
LayerCount: 2
Fore
SplineSet
276 818 m 1
 197 917 120 1071 120 1251 c 0
 120 1388 185 1483 308 1483 c 0
 429 1483 478 1402 478 1303 c 0
 478 1117 240 1249 240 1138 c 0
 240 1043 289 927 342 866 c 1
 276 818 l 1
EndSplineSet
EndChar

StartChar: uniFD3E
Encoding: 64830 64830 462
Width: 598
Flags: HW
LayerCount: 2
Fore
SplineSet
551 111 m 1
 299 -51 l 1
 148 185 50 448 50 778 c 0
 50 1108 148 1370 299 1606 c 1
 551 1444 l 1
 428 1253 350 1056 350 778 c 0
 350 500 428 302 551 111 c 1
EndSplineSet
EndChar

StartChar: uniFD3F
Encoding: 64831 64831 463
Width: 598
Flags: HW
LayerCount: 2
Fore
SplineSet
47 1444 m 1
 299 1606 l 1
 450 1370 548 1107 548 777 c 0
 548 447 450 185 299 -51 c 1
 47 111 l 1
 170 302 248 499 248 777 c 0
 248 1055 170 1253 47 1444 c 1
EndSplineSet
EndChar

StartChar: uniE020
Encoding: 57376 57376 466
Width: 878
Flags: HW
LayerCount: 2
Fore
SplineSet
720 722 m 1
 560 588 l 1
 532 621 494 648 431 648 c 0
 365 648 289 586 289 496 c 0
 289 421 336 375 441 375 c 1
 734 494 l 1
 815 301 l 1
 145 24 l 1
 64 217 l 1
 184 267 l 1
 122 313 79 383 79 482 c 0
 79 705 247 858 431 858 c 0
 567 858 664 789 720 722 c 1
EndSplineSet
Colour: ff00ff
EndChar

StartChar: uniE021
Encoding: 57377 57377 467
Width: 560
Flags: HW
LayerCount: 2
Fore
SplineSet
560 1682 m 1
 705 1613 l 1
 636 1452 547 1373 419 1373 c 0
 368 1373 309 1386 239 1411 c 0
 192 1428 159 1438 132 1438 c 0
 84 1438 54 1407 -2 1329 c 1
 -145 1414 l 1
 -71 1563 40 1651 162 1651 c 0
 189 1651 218 1646 247 1636 c 0
 365 1594 404 1582 434 1582 c 0
 481 1582 511 1594 560 1682 c 1
430 1233 m 1
 430 0 l 1
 130 0 l 1
 130 1233 l 1
 430 1233 l 1
EndSplineSet
Colour: ff00ff
EndChar

StartChar: uniE022
Encoding: 57378 57378 468
Width: 500
Flags: HW
LayerCount: 2
Fore
SplineSet
400 0 m 1
 100 0 l 1
 100 1356 l 1
 400 1356 l 1
 400 0 l 1
EndSplineSet
Colour: ff00ff
EndChar

StartChar: uniE023
Encoding: 57379 57379 469
Width: 1360
Flags: HW
LayerCount: 2
Back
SplineSet
1304 -333 m 1
 1408 -614 l 1
 1229 -681 1042 -739 805 -739 c 0
 405 -739 26 -562 26 -154 c 0
 26 274 476 475 864 605 c 1
 581 687 l 18
 548 697 525 700 507 700 c 0
 418 700 390 628 369 449 c 1
 71 481 l 1
 99 753 196 1000 507 1000 c 0
 560 1000 618 993 679 971 c 10
 1314 742 l 1
 1307 438 l 1
 729 294 326 113 326 -154 c 0
 326 -341 554 -439 805 -439 c 0
 1004 -439 1150 -391 1304 -333 c 1
EndSplineSet
Fore
SplineSet
1244 -313 m 1
 1360 -588 l 1
 1197 -662 1012 -715 735 -715 c 0
 375 -715 26 -562 26 -154 c 0
 26 274 446 475 834 605 c 1
 581 687 l 18
 548 697 525 700 507 700 c 0
 418 700 390 628 369 449 c 1
 71 481 l 1
 99 753 196 1000 507 1000 c 0
 560 1000 618 993 679 971 c 10
 1280 742 l 1
 1280 438 l 1
 702 294 326 113 326 -154 c 0
 326 -341 524 -410 761 -410 c 0
 958 -410 1117 -371 1244 -313 c 1
EndSplineSet
Colour: ff00ff
EndChar

StartChar: uniE024
Encoding: 57380 57380 470
Width: 936
VWidth: 0
Flags: HW
LayerCount: 2
Fore
SplineSet
908 399 m 256
 908 75 573 0 352 0 c 256
 246 0 131 19 33 46 c 257
 107 333 l 257
 183.607804655 315.635564278 262.59238186 299.145133615 359.403564698 299.145133615 c 0
 468.299227361 299.145133615 611 324.225585938 611 423 c 256
 611 515 500 672 298 842 c 257
 490 1070 l 257
 726 871 908 658 908 399 c 256
EndSplineSet
Colour: ff00ff
EndChar

StartChar: uniE025
Encoding: 57381 57381 471
Width: 834
Flags: HW
LayerCount: 2
Fore
SplineSet
398 634 m 1
 677 745 l 1
 746 569 806 376 806 203 c 0
 806 -154 533 -395 154 -532 c 1
 52 -250 l 1
 338 -146 506 -19 506 203 c 0
 506 318 457 489 398 634 c 1
EndSplineSet
Colour: ff00ff
EndChar

StartChar: uniE026
Encoding: 57382 57382 472
Width: 2378
Flags: HW
LayerCount: 2
Fore
SplineSet
1963 -3 m 0
 1876 -3 1783 26 1710 85 c 1
 1646 28 1566 -3 1473 -3 c 0
 1437 -3 1403 4 1375 17 c 1
 1313 -343 1006 -506 684 -506 c 0
 350 -506 28 -326 28 73 c 0
 28 287 112 489 225 681 c 1
 484 534 l 1
 384 369 328 197 328 73 c 0
 328 -90 425 -206 684 -206 c 0
 965 -206 1092 -67 1092 120 c 0
 1092 270 1037 403 940 637 c 1
 1222 744 l 1
 1340 408 1379 300 1473 300 c 0
 1536 300 1565 351 1577 442 c 2
 1607 677 l 1
 1882 651 l 1
 1865 494 l 2
 1862 467 1860 441 1860 419 c 0
 1860 344 1877 300 1958 300 c 0
 2028 300 2051 360 2051 442 c 0
 2051 561 2005 719 1986 781 c 1
 2274 871 l 1
 2312 748 2350 603 2350 459 c 0
 2350 265 2262 -3 1963 -3 c 0
EndSplineSet
Colour: ff00ff
EndChar

StartChar: uniE027
Encoding: 57383 57383 473
Width: 2322
Flags: HW
LayerCount: 2
Fore
SplineSet
1671 -3 m 0
 1576 -3 1471 12 1379 37 c 1
 1311 -335 1022 -506 684 -506 c 0
 350 -506 28 -326 28 73 c 0
 28 287 112 489 225 681 c 1
 484 534 l 1
 384 369 328 197 328 73 c 0
 328 -90 425 -206 684 -206 c 0
 965 -206 1092 -67 1092 120 c 0
 1092 270 1037 403 940 637 c 1
 1222 744 l 1
 1256 668 1284 592 1309 516 c 1
 1472 740 1672 846 1864 846 c 0
 2088 846 2293 689 2293 439 c 0
 2293 95 1922 -3 1671 -3 c 0
1530 309 m 1
 1577 301 1624 297 1671 297 c 0
 1909 297 1993 378 1993 439 c 0
 1993 496 1948 546 1864 546 c 0
 1775 546 1655 499 1530 309 c 1
EndSplineSet
Colour: ff00ff
EndChar

StartChar: uniE028
Encoding: 57384 57384 474
Width: 1515
Flags: HW
LayerCount: 2
Fore
SplineSet
674 310 m 1
 674 301 l 1
 1132 301 1165 398 1165 473 c 0
 1165 531 1126 587 1040 587 c 0
 961 587 796 520 674 310 c 1
328 300 m 1
 328 1356 l 1
 628 1356 l 1
 628 651 l 1
 771 811 928 887 1086 887 c 0
 1255 887 1465 754 1465 506 c 0
 1465 160 1169 0 478 0 c 2
 55 0 l 1
 55 300 l 1
 328 300 l 1
EndSplineSet
Colour: ff00ff
EndChar

StartChar: uniE029
Encoding: 57385 57385 475
Width: 1299
Flags: HW
LayerCount: 2
Fore
SplineSet
1051 1021 m 1
 822 828 l 1
 776 894 710 968 596 968 c 0
 476 968 404 880 404 776 c 0
 404 659 526 624 696 624 c 0
 808 624 928 644 1032 664 c 1
 1070.29199219 358.911132812 l 1
 676 340 331 216 331 -80 c 0
 331 -295 536 -383 761 -383 c 0
 900 -383 1047 -353 1158 -307 c 1
 1278 -582 l 1
 1126 -656 943 -696 766 -696 c 0
 387 -696 31 -515 31 -105 c 0
 31 139 152 307 295 416 c 1
 191 479 104 588 104 741 c 0
 104 1038 325 1268 596 1268 c 0
 829 1268 950 1139 1051 1021 c 1
EndSplineSet
Colour: ff00ff
EndChar

StartChar: uniE02A
Encoding: 57386 57386 476
Width: 811
Flags: HW
LayerCount: 2
Fore
SplineSet
0 300 m 2
 811 300 l 1
 811 0 l 1
 0 0 l 2
 -83 0 -150 67 -150 150 c 0
 -150 233 -83 300 0 300 c 2
EndSplineSet
Colour: ff00ff
EndChar

StartChar: uniE02B
Encoding: 57387 57387 477
Width: 1748
Flags: HW
LayerCount: 2
Fore
SplineSet
1215 1356 m 1
 1515 1356 l 1
 1515 592 l 2
 1515 393 1473.31683543 248.672180915 1374 153 c 0
 1265 48 1088 0 760 0 c 0
 432 0 28 51 28 472 c 0
 28 582 47 693 70 785 c 1
 361 716 l 1
 346 647 328 541 328 472 c 0
 328 358 415 300 731 300 c 0
 1011 300 1108 311 1160 363 c 0
 1203 406 1215 477 1215 592 c 2
 1215 1356 l 1
EndSplineSet
Colour: ff00ff
EndChar

StartChar: uniE02C
Encoding: 57388 57388 478
Width: 1268
Flags: HW
LayerCount: 2
Fore
SplineSet
907 1356 m 1
 1207 1356 l 1
 1207 118 l 2
 1207 -282 969 -506 602 -506 c 0
 271 -506 28 -291 28 38 c 0
 28 167 59 310 123 466 c 1
 390 360 l 1
 340 230 327 112 327 32 c 0
 327 -116 403 -206 618 -206 c 0
 826 -206 907 -133 907 118 c 2
 907 1356 l 1
EndSplineSet
Colour: ff00ff
EndChar

StartChar: uniE02D
Encoding: 57389 57389 479
Width: 1199
Flags: HW
LayerCount: 2
Fore
SplineSet
307 370 m 1
 341 558 451 843 760 843 c 0
 1034 843 1169 588 1169 374 c 0
 1169 109 972 0 793 0 c 0
 678 0 570 29 486 61 c 0
 439 79 429 82 401 82 c 0
 363 82 328 67 328 -27 c 0
 328 -785 l 1
 28 -785 l 1
 28 -27 l 0
 28 153 129 323 307 370 c 1
606 339 m 1
 676 317 739 300 793 300 c 0
 855 300 869 312 869 362 c 0
 869 485 812 543 760 543 c 0
 695 543 635 475 606 339 c 1
EndSplineSet
Colour: ff00ff
EndChar

StartChar: uniE02E
Encoding: 57390 57390 480
Width: 869
Flags: HW
LayerCount: 2
Fore
SplineSet
435 300 m 0
 509 300 547 321 547 385 c 0
 547 445 508 525 435 608 c 1
 362 525 322 443 322 385 c 0
 322 322 359 300 435 300 c 0
435 0 m 0
 209 0 41 158 41 378 c 0
 41 662 260 857 435 1011 c 1
 610 857 828 661 828 378 c 0
 828 159 662 0 435 0 c 0
EndSplineSet
Colour: ff00ff
EndChar

StartChar: uniE02F
Encoding: 57391 57391 481
Width: 928
Flags: HW
LayerCount: 2
Fore
SplineSet
545 -2 m 1
 525 -4 508 -4 488 -4 c 0
 290 -4 62 100 62 375 c 0
 62 593 205 872 470 872 c 0
 882 872 900 322 900 170 c 0
 900 -230 587 -415 154 -532 c 1
 52 -250 l 1
 294 -191 479 -88 545 -2 c 1
592 306 m 1
 567 495 520 572 470 572 c 0
 416 572 362 501 362 375 c 0
 362 320 377 296 488 296 c 0
 527 296 560 299 592 306 c 1
EndSplineSet
Colour: ff00ff
EndChar

StartChar: uniE030
Encoding: 57392 57392 482
Width: 0
Flags: HW
LayerCount: 2
Fore
SplineSet
-216.299804688 1861.95019531 m 0
 -216.299804688 1800.34960938 -195.400390625 1747.54980469 -168.584960938 1708.28320312 c 1
 -256 1655 l 1
 -296 1715 -324 1787 -324 1867 c 0
 -324 2070 -161 2233 42 2233 c 1
 44 2132.54980469 l 1
 -95.2998046875 2132.54980469 -216.299804688 2011.54980469 -216.299804688 1861.95019531 c 0
EndSplineSet
Colour: ff00ff
EndChar

StartChar: uniE031
Encoding: 57393 57393 483
Width: 0
Flags: HW
LayerCount: 2
Fore
SplineSet
182 1778 m 1
 232 1668 l 1
 -182 1480 l 1
 -232 1590 l 1
 182 1778 l 1
EndSplineSet
Colour: ff00ff
EndChar

StartChar: uniE032
Encoding: 57394 57394 484
Width: 0
Flags: HW
LayerCount: 2
Fore
SplineSet
-14 1693 m 1
 -73 1724 -137 1777 -137 1861 c 0
 -137 1967 -43 2044 47 2044 c 0
 161 2044 208 1938 208 1870 c 0
 208 1650.13671875 -13 1536 -172.280273438 1483.85546875 c 1
 -213 1597 l 1
 -138 1622 -72 1654 -14 1693 c 1
67 1787 m 1
 81 1814 88 1842 88 1870 c 0
 88 1899 71 1924 45 1924 c 0
 18 1924 -17 1890 -17 1864 c 0
 -17 1835 5 1812 67 1787 c 1
EndSplineSet
Colour: ff00ff
EndChar

StartChar: uniE033
Encoding: 57395 57395 485
Width: 0
Flags: HW
LayerCount: 2
Fore
SplineSet
156 1701 m 0
 156 1758 143 1801 125 1851 c 1
 238 1892 l 1
 259 1834 276 1776 276 1701 c 0
 276 1597 212 1519 124 1519 c 0
 77 1519 33 1542 0 1578 c 1
 -35 1539 -77 1519 -124 1519 c 0
 -212 1519 -276 1597 -276 1701 c 0
 -276 1776 -259 1834 -238 1892 c 1
 -125 1851 l 1
 -143 1801 -156 1758 -156 1701 c 0
 -156 1646 -133 1639 -114 1639 c 0
 -94.4189453125 1639 -60 1646 -60 1706 c 2
 -60 1792 l 1
 60 1792 l 1
 60 1706 l 2
 60 1646 93.4189453125 1639 115 1639 c 0
 133 1639 156 1646 156 1701 c 0
EndSplineSet
Colour: ff00ff
EndChar

StartChar: uniE034
Encoding: 57396 57396 486
Width: 0
Flags: HW
LayerCount: 2
Fore
SplineSet
0 1847 m 0
 -53 1847 -94 1807 -94 1754 c 0
 -94 1701 -52 1660 0 1660 c 0
 51 1660 94 1703 94 1754 c 0
 94 1805 53 1847 0 1847 c 0
0 1967 m 0
 117 1967 214 1873 214 1754 c 0
 214 1635 119 1540 0 1540 c 0
 -120 1540 -214 1637 -214 1754 c 0
 -214 1871 -120 1967 0 1967 c 0
EndSplineSet
Colour: ff00ff
EndChar

StartChar: uniE035
Encoding: 57397 57397 487
Width: 0
Flags: HW
LayerCount: 2
Fore
SplineSet
-278 1531 m 1
 -246 1595 -187 1674 -87 1674 c 0
 -45 1674 -4 1658 35 1629 c 0
 58 1611 74 1607 86 1607 c 0
 115 1607 147 1639 167 1685 c 1
 277 1639 l 1
 247 1566 186 1487 86 1487 c 0
 43 1487 1 1503 -39 1533 c 0
 -61 1550 -77 1554 -87 1554 c 0
 -117 1554 -149 1521 -170 1479 c 1
 -278 1531 l 1
EndSplineSet
Colour: ff00ff
EndChar

StartChar: uniE036
Encoding: 57398 57398 488
Width: 0
Flags: HW
LayerCount: 2
Fore
SplineSet
-182 1479 m 1
 -232 1589 l 1
 -149 1626 l 1
 -183 1675 -200 1728 -200 1781 c 0
 -200 1891 -116 1987 23 1987 c 2
 115 1987 l 1
 115 1867 l 1
 23 1867 l 2
 -56 1867 -80 1827 -80 1781 c 0
 -80 1750 -66 1710 -37 1677 c 1
 183 1777 l 1
 233 1667 l 1
 -182 1479 l 1
EndSplineSet
Colour: ff00ff
EndChar

StartChar: uniE037
Encoding: 57399 57399 489
Width: 0
Flags: HW
LayerCount: 2
Fore
SplineSet
-260 1850 m 1
 -164 1922 l 1
 0 1703 l 1
 164 1922 l 1
 260 1850 l 1
 0 1503 l 1
 -260 1850 l 1
EndSplineSet
Colour: ff00ff
EndChar

StartChar: uniE038
Encoding: 57400 57400 490
Width: 1782
Flags: HW
LayerCount: 2
Fore
SplineSet
1703 833 m 1
 1732 740 1754 606 1754 490 c 0
 1754 71 1293.31933594 0 891 0 c 0
 488.680664062 0 28 71 28 490 c 0
 28 606 50 740 79 833 c 1
 370 755 l 1
 350 688 326 580 326 503 c 0
 326 310 674 300 891 300 c 0
 1108 300 1456 310 1456 503 c 0
 1456 580 1432 688 1412 755 c 1
 1703 833 l 1
EndSplineSet
Colour: ff00ff
EndChar

StartChar: uniE039
Encoding: 57401 57401 491
Width: 1415
Flags: HW
LayerCount: 2
Fore
SplineSet
1079 307 m 1
 1054 496 1007 573 957 573 c 0
 903 573 849 502 849 376 c 0
 849 321 864 297 975 297 c 0
 1014 297 1047 300 1079 307 c 1
1072 1 m 1
 1045 -1 1006 -3 975 -3 c 0
 777 -3 549 101 549 376 c 0
 549 594 692 873 957 873 c 0
 1369 873 1387 323 1387 171 c 0
 1387 -273 1083 -506 684 -506 c 0
 350 -506 28 -326 28 73 c 0
 28 287 112 489 225 681 c 1
 484 534 l 1
 384 369 328 197 328 73 c 0
 328 -90 425 -206 684 -206 c 0
 901 -206 1026 -123 1072 1 c 1
EndSplineSet
Colour: ff00ff
EndChar

StartChar: uniE03A
Encoding: 57402 57402 492
Width: 0
Flags: HW
LayerCount: 2
Fore
SplineSet
-60 1889 m 1
 60 1889 l 1
 60 1540 l 1
 -60 1540 l 1
 -60 1889 l 1
EndSplineSet
Colour: ff00ff
EndChar

StartChar: uniE03B
Encoding: 57403 57403 493
Width: 1752
Flags: HW
LayerCount: 2
Fore
SplineSet
1416 694 m 1
 1391 883 1344 960 1294 960 c 0
 1240 960 1186 889 1186 763 c 0
 1186 708 1201 684 1312 684 c 0
 1351 684 1384 687 1416 694 c 1
1724 558 m 0
 1724 65 1337 0 812 0 c 0
 400 0 28 61 28 480 c 0
 28 596 55 720 84 813 c 1
 375 735 l 1
 355 668 329 570 329 493 c 0
 329 300 601 300 818 300 c 0
 1271 300 1386 327 1432 424 c 1
 1378 414 1324 409 1273 409 c 0
 1059 409 886 512 886 763 c 0
 886 981 1029 1260 1294 1260 c 0
 1706 1260 1724 710 1724 558 c 0
EndSplineSet
Colour: ff00ff
EndChar

StartChar: uniE03C
Encoding: 57404 57404 494
Width: 1848
Flags: HW
LayerCount: 2
Fore
SplineSet
84 813 m 1
 375 735 l 1
 355 668 329 570 329 493 c 0
 329 300 601 300 818 300 c 0
 1078 300 1243 348 1243 445 c 0
 1243 554 992 756 794 904 c 1
 794 1148 l 1
 1068 1327 1381 1457 1717 1525 c 1
 1777 1231 l 1
 1553 1185 1343 1115 1144 1009 c 1
 1144 1007 l 1
 1334 841 1543 652 1543 415 c 0
 1543 72 1114 0 774 0 c 0
 421.680664062 0 28 61 28 480 c 0
 28 596 55 720 84 813 c 1
EndSplineSet
Colour: ff00ff
EndChar

StartChar: uniE03D
Encoding: 57405 57405 495
Width: 1512
Flags: HW
LayerCount: 2
Fore
SplineSet
1183 144 m 0
 1183 290 1091 494 1022.96875 630.993164062 c 1
 1289 760 l 1
 1372 600 1483 382 1483 132 c 0
 1483 -308 1090 -506 736 -506 c 0
 396 -506 29 -320 29 97 c 0
 29 304 119 527 223.600585938 714.892578125 c 1
 486 564 l 1
 400 415 328 241 328 96 c 0
 328 -81 433 -206 726 -206 c 0
 1001 -206 1183 -73 1183 144 c 0
EndSplineSet
Colour: ff00ff
EndChar

StartChar: uniE03E
Encoding: 57406 57406 496
Width: 1449
Flags: HW
LayerCount: 2
Fore
SplineSet
1366.00488281 883.544921875 m 1
 1265 600 l 1
 1207 623 1123 638 1050 638 c 0
 908 638 824 559 824 436 c 0
 824 366 863 338 1014 329 c 0
 1208 318 1412 254 1412 -36 c 0
 1412 -368 1053 -506 724 -506 c 0
 331 -506 28 -319 28 50 c 0
 28 204 55 387 105 546 c 1
 391 456 l 1
 352 310 328 166 328 50 c 0
 328 -105 411 -206 724 -206 c 0
 997 -206 1112 -120 1112 -52 c 0
 1112 -7.78543896018e-15 1096 24 937.981445312 32.6748046875 c 0
 701 46 524 128 524 389 c 0
 524 713 747 938 1060 938 c 0
 1148 938 1268 916 1366.00488281 883.544921875 c 1
EndSplineSet
Colour: ff00ff
EndChar

StartChar: uniE03F
Encoding: 57407 57407 497
Width: 1865
Flags: HW
LayerCount: 2
Fore
SplineSet
1865 300 m 1
 1865 0 l 1
 1864 0 l 17
 1687 0 1549 70 1460 193 c 1
 1319 38 1023 0 774 0 c 0
 422 0 28 61 28 480 c 0
 28 596 55 720 84 813 c 1
 375 735 l 1
 355 668 329 570 329 493 c 0
 329 300 601 300 818 300 c 0
 1078 300 1243 348 1243 445 c 0
 1243 554 992 756 794 904 c 1
 794 1148 l 1
 1068 1327 1381 1457 1717 1525 c 1
 1777 1231 l 1
 1553 1185 1343 1115 1144 1009 c 1
 1144 1007 l 1
 1346 844 1448 684 1521 558 c 0
 1611.44666546 401.886577427 1680 300 1864 300 c 9
 1865 300 l 1
EndSplineSet
Colour: ff00ff
EndChar

StartChar: uniE040
Encoding: 57408 57408 498
Width: 1660
Flags: HW
LayerCount: 2
Fore
SplineSet
223.600585938 714.892578125 m 1
 486 564 l 1
 400 415 328 241 328 96 c 0
 328 -81 433 -206 726 -206 c 0
 1001 -206 1183 -73 1183 144 c 0
 1183 290 1091 494 1022.96875 630.993164062 c 1
 1289 760 l 1
 1441 418 l 2
 1481 325 1500 300 1659 300 c 2
 1660 300 l 1
 1660 0 l 1
 1659 0 l 2
 1592 0 1533 7 1474 22 c 1
 1408 -344 1062 -506 737 -506 c 0
 370 -506 29 -300 29 97 c 0
 29 304 119 527 223.600585938 714.892578125 c 1
EndSplineSet
Colour: ff00ff
EndChar

StartChar: uniE041
Encoding: 57409 57409 499
Width: 547
Flags: HW
LayerCount: 2
Fore
SplineSet
430 907 m 1
 482 757 512 611 512 482 c 0
 512 199 368 0 0 0 c 0
 -83 0 -150 67 -150 150 c 0
 -150 233 -83 300 0 300 c 0
 164 300 213 382 213 496 c 0
 213 594 178 710 147 812 c 1
 430 907 l 1
EndSplineSet
Colour: ff00ff
EndChar

StartChar: uniE042
Encoding: 57410 57410 500
Width: 767
Flags: HW
LayerCount: 2
Fore
SplineSet
0 300 m 0
 107 300 166 311 198 348 c 0
 228 382 234 439 234 532 c 2
 234 719 l 1
 534 719 l 1
 534 532 l 2
 534 435 541 377 574 343 c 0
 606 310 664 300 766 300 c 2
 767 300 l 1
 767 0 l 1
 766 0 l 1
 609 0 481 39 384 129 c 1
 286 37 154 0 0 0 c 0
 -83 0 -150 67 -150 150 c 0
 -150 233 -83 300 0 300 c 0
EndSplineSet
Colour: ff00ff
EndChar

StartChar: uniE043
Encoding: 57411 57411 501
Width: 1453
Flags: HW
LayerCount: 2
Fore
SplineSet
1453 300 m 1
 1453 0 l 1
 1406 0 l 1
 1417 -37 1422 -72 1422 -108 c 0
 1422 -404 1130 -583 738 -583 c 0
 333 -583 40 -373 40 40 c 0
 40 318.388671875 133.364257812 534.54296875 229 739 c 1
 497 599 l 1
 418.047851562 424.901367188 338 243.409179688 338 29 c 0
 338 -191 444 -283 734 -283 c 0
 1084 -283 1122 -160 1122 -124 c 0
 1122 -57.8095703125 1021 0 642 0 c 1
 642 300 l 1
 1453 300 l 1
EndSplineSet
Colour: ff00ff
EndChar

StartChar: uniE044
Encoding: 57412 57412 502
Width: 596
Flags: HW
LayerCount: 2
Fore
SplineSet
100 1356 m 1
 400 1356 l 1
 400 466 l 2
 400 401 406 361 428 336 c 0
 454 307 504 300 595 300 c 1
 596 300 l 9
 596 0 l 17
 595 0 l 1
 433 0 307 43 222 126 c 0
 143 204 100 318 100 466 c 2
 100 1356 l 1
EndSplineSet
Colour: ff00ff
EndChar

StartChar: uniE045
Encoding: 57413 57413 503
Width: 1398
Flags: HW
LayerCount: 2
Fore
SplineSet
1244 -313 m 1
 1360 -588 l 1
 1197 -662 1012 -715 735 -715 c 0
 375 -715 26 -562 26 -154 c 0
 26 274 446 475 834 605 c 1
 581 687 l 2
 548 697 525 700 507 700 c 0
 418 700 390 628 369 449 c 1
 71 481 l 1
 99 753 196 1000 507 1000 c 0
 560 1000 618 993 679 971 c 2
 1280 742 l 1
 1280 438 l 1
 1238.8617067 427.751013433 1198.74667866 417.314597089 1159.71765012 406.673084425 c 1
 1215.70870386 342.163870014 1278.62639507 299.999999811 1397 300 c 2
 1398 300 l 1
 1398 0 l 1
 1397 0 l 2
 1137.37559436 0 962.433239769 150.171107684 855.151565052 310.731074805 c 1
 524.658263425 188.713154372 326 40.0754743327 326 -154 c 0
 326 -341 524 -410 761 -410 c 0
 958 -410 1117 -371 1244 -313 c 1
EndSplineSet
Colour: ff00ff
EndChar

StartChar: uniE046
Encoding: 57414 57414 504
Width: 1316
Flags: HW
LayerCount: 2
Fore
SplineSet
27 527 m 1
 57 708 143 999 436 999 c 0
 511 999 586 979 663 942 c 2
 1257 681 l 1
 1257 415 l 1
 852 159 534 0 0 0 c 0
 -83 0 -150 67 -150 150 c 0
 -150 233 -83 300 0 300 c 0
 378 300 632 374 870 534 c 1
 532 672 l 2
 484.475099313 692.809719828 457 699 436 699 c 0
 407 699 353 666 323 479 c 1
 27 527 l 1
EndSplineSet
Colour: ff00ff
EndChar

StartChar: uniE047
Encoding: 57415 57415 505
Width: 1316
Flags: HW
LayerCount: 2
Fore
SplineSet
27 527 m 1
 57 708 143 999 436 999 c 0
 511 999 586 979 663 942 c 2
 1257 681 l 1
 1257 415 l 1
 1214.17195085 387.928443009 1172.3167963 361.941607578 1131.07622336 337.112812008 c 1
 1180.46379113 310.923444761 1237.71873778 299.99999985 1315 300 c 2
 1316 300 l 1
 1316 0 l 1
 1315 0 l 2
 1133.43016708 0 986.315413379 68.9101584355 868.751067358 193.132459468 c 1
 615.298592954 70.4762037865 355.519925464 -4.73926453637e-15 0 0 c 0
 -83 0 -150 67 -150 150 c 0
 -150 233 -83 300 0 300 c 0
 378 300 632 374 870 534 c 1
 532 672 l 2
 484.475099313 692.809719828 457 699 436 699 c 0
 407 699 353 666 323 479 c 1
 27 527 l 1
EndSplineSet
Colour: ff00ff
EndChar

StartChar: uniE048
Encoding: 57416 57416 506
Width: 1180
Flags: HW
LayerCount: 2
Fore
SplineSet
1180 300 m 1
 1180 0 l 1
 1179 0 l 1
 1038 0 907 27 799 131 c 1
 699 33 560 0 429 0 c 0
 264 0 105 47 0 128 c 1
 146 392 l 1
 220 334 324 300 429 300 c 0
 570 300 615 357 615 408 c 0
 615 425 611 448 595 486 c 2
 403 938 l 1
 678 1058 l 1
 907 522 l 2
 999 306 1011 300 1179 300 c 1
 1180 300 l 1
EndSplineSet
Colour: ff00ff
EndChar

StartChar: uniE049
Encoding: 57417 57417 507
Width: 960
Flags: HW
LayerCount: 2
Fore
SplineSet
398 634 m 1
 677 745 l 1
 759 500 l 2
 820 319 848 300 959 300 c 1
 960 300 l 1
 960 0 l 17
 959 0 l 2
 894 0 849 9 783 34 c 1
 742 -226 463 -420 154 -532 c 1
 52 -250 l 1
 338 -146 506 -19 506 203 c 0
 506 318 457 489 398 634 c 1
EndSplineSet
Colour: ff00ff
EndChar

StartChar: uniE04A
Encoding: 57418 57418 508
Width: 2614
Flags: HW
LayerCount: 2
Fore
SplineSet
2301 816 m 1
 2349 573 l 2
 2396 333 2407 300 2613 300 c 1
 2614 300 l 1
 2614 0 l 1
 2613 0 l 1
 2448 0 2325 40 2238 115 c 1
 2173 44 2080 0 1963 0 c 0
 1876 0 1783 29 1710 88 c 1
 1646 31 1566 0 1473 0 c 0
 1437 0 1403 7 1375 20 c 1
 1313 -340 1006 -506 684 -506 c 0
 350 -506 28 -326 28 73 c 0
 28 287 112 489 225 681 c 1
 484 534 l 1
 384 369 328 197 328 73 c 0
 328 -90 425 -206 684 -206 c 0
 965 -206 1092 -67 1092 120 c 0
 1092 270 1037 403 940 637 c 1
 1222 744 l 1
 1342 408 1389 300 1471 300 c 0
 1539 300 1564 341 1577 444 c 2
 1607 679 l 1
 1883 649 l 1
 1857 401 l 2
 1856 394 1856 387 1856 381 c 0
 1856 313 1905 300 1958 300 c 0
 2024 300 2062 331 2062 422 c 0
 2062 466 2053 523 2039 595 c 2
 2007 756 l 1
 2301 816 l 1
EndSplineSet
Colour: ff00ff
EndChar

StartChar: uniE04B
Encoding: 57419 57419 509
Width: 1538
Flags: HW
LayerCount: 2
Fore
SplineSet
1461 810 m 1
 1492 668 1510 568 1510 415 c 0
 1510 305 1476 204 1415 130 c 0
 1348 48 1248 0 1128 0 c 0
 1031 0 944 34 880 91 c 1
 815 33 729 0 632 0 c 0
 522 0 427 43 362 112 c 1
 274 36 153 0 0 0 c 0
 -83 0 -150 67 -150 150 c 0
 -150 233 -83 300 0 300 c 0
 113 300 164 317 190 349 c 0
 218 384 234 457 234 589 c 2
 234 716 l 1
 534 716 l 1
 534 507 l 2
 534 446 540 393 555 355 c 0
 570 319 599 300 637 300 c 0
 675 300 705 319 720 355 c 0
 735 393 740 446 740 507 c 2
 740 706 l 1
 1020 706 l 1
 1020 507 l 2
 1020 448 1025 396 1039 359 c 0
 1054 320 1083 300 1123 300 c 0
 1171 300 1198 321 1206 361 c 0
 1209 377 1210 395 1210 415 c 0
 1210 548 1193 638 1168 748 c 1
 1461 810 l 1
EndSplineSet
Colour: ff00ff
EndChar

StartChar: uniE04C
Encoding: 57420 57420 510
Width: 1735
Flags: HW
LayerCount: 2
Fore
SplineSet
1461 810 m 1
 1490 590 l 2
 1508 470 1533 373 1578 336 c 0
 1601 318 1644 300 1734 300 c 1
 1735 300 l 1
 1735 0 l 1
 1734 0 l 1
 1604 0 1483 30 1390 103 c 1
 1323 38 1231 0 1128 0 c 0
 1030 0 944 37 880 94 c 1
 815 35 730 0 632 0 c 0
 522 0 427 43 362 112 c 1
 274 36 153 0 0 0 c 0
 -83 0 -150 67 -150 150 c 0
 -150 233 -83 300 0 300 c 0
 113 300 164 317 190 349 c 0
 218 384 234 457 234 589 c 2
 234 716 l 1
 534 716 l 1
 534 507 l 2
 534 453 537 395 554 354 c 0
 568 320 597 300 637 300 c 0
 678 300 707 321 721 356 c 0
 738 398 740 456 740 507 c 2
 740 706 l 1
 1020 706 l 1
 1020 507 l 2
 1020 450 1024 387 1047 345 c 0
 1062 318 1090 301 1124 301 c 0
 1159 301 1183 315 1194 339 c 0
 1203 359 1206 384 1206 415 c 0
 1206 504 1189 642 1163 765 c 1
 1461 810 l 1
EndSplineSet
Colour: ff00ff
EndChar

StartChar: uniE04D
Encoding: 57421 57421 511
Width: 2416
Flags: HW
LayerCount: 2
Fore
SplineSet
1309 516 m 1
 1472 740 1672 846 1864 846 c 0
 2088 846 2293 689 2293 439 c 0
 2293 394 2287 353 2275 316 c 1
 2301 306 2344 300 2415 300 c 1
 2416 300 l 1
 2416 0 l 1
 2415 0 l 1
 2276 0 2162 27 2075 89 c 1
 1951 22 1802 -3 1671 -3 c 0
 1576 -3 1471 12 1379 37 c 1
 1311 -335 1022 -506 684 -506 c 0
 350 -506 28 -326 28 73 c 0
 28 287 112 489 225 681 c 1
 484 534 l 1
 384 369 328 197 328 73 c 0
 328 -90 425 -206 684 -206 c 0
 965 -206 1092 -67 1092 120 c 0
 1092 270 1037 403 940 637 c 1
 1222 744 l 1
 1256 668 1284 592 1309 516 c 1
1530 309 m 1
 1577 301 1624 297 1671 297 c 0
 1909 297 1993 378 1993 439 c 0
 1993 496 1948 546 1864 546 c 0
 1775 546 1655 499 1530 309 c 1
EndSplineSet
Colour: ff00ff
EndChar

StartChar: uniE04E
Encoding: 57422 57422 512
Width: 1612
Flags: HW
LayerCount: 2
Fore
SplineSet
0 300 m 0
 113 300 157 325 178 346 c 0
 203 372 232 437 234 574 c 2
 234 716 l 1
 534 716 l 1
 534 574 l 2
 534 547 537 519 544 494 c 1
 732 765 953 887 1157 887 c 0
 1352 887 1562 754 1562 506 c 0
 1562 142 1106 0 829 0 c 0
 653 0 486 16 371 112 c 1
 274 25 138 0 0 0 c 0
 -83 0 -150 67 -150 150 c 0
 -150 233 -83 300 0 300 c 0
764 301 m 1
 785 300 806 300 829 300 c 0
 1145 300 1262 412 1262 486 c 0
 1262 544 1215 587 1137 587 c 0
 1054 587 914 532 764 301 c 1
EndSplineSet
Colour: ff00ff
EndChar

StartChar: uniE04F
Encoding: 57423 57423 513
Width: 1635
Flags: HW
LayerCount: 2
Fore
SplineSet
764 298 m 1
 785 297 806 297 829 297 c 0
 1145 297 1262 412 1262 486 c 0
 1262 544 1215 587 1137 587 c 0
 1054 587 914 529 764 298 c 1
534 716 m 1
 534 570 l 2
 534 540 535 518 539 494 c 1
 727 765 953 887 1157 887 c 0
 1352 887 1562 754 1562 506 c 0
 1562 434 1542 368 1510 312 c 1
 1538 303 1578 300 1634 300 c 1
 1635 300 l 1
 1635 0 l 1
 1634 0 l 1
 1494 0 1369 29 1276 103 c 1
 1134 30 967 0 829 0 c 0
 651 0 486 17 371 112 c 1
 273 28 143 0 0 0 c 0
 -83 0 -150 67 -150 150 c 0
 -150 233 -83 300 0 300 c 0
 113 300 158 325 179 346 c 0
 214 381 234 469 234 589 c 2
 234 716 l 1
 534 716 l 1
EndSplineSet
Colour: ff00ff
EndChar

StartChar: uniE050
Encoding: 57424 57424 514
Width: 1538
Flags: HW
LayerCount: 2
Fore
SplineSet
674 304 m 1
 1151 328 1165 398 1165 473 c 0
 1165 531 1126 587 1040 587 c 0
 960 587 796 519 674 304 c 1
328 300 m 1
 328 1356 l 1
 628 1356 l 1
 628 651 l 1
 771 811 928 887 1060 887 c 0
 1255 887 1465 754 1465 506 c 0
 1465 435 1452 369 1423 309 c 1
 1451 302 1488 300 1537 300 c 1
 1538 300 l 1
 1538 0 l 1
 1537 0 l 1
 1403 0 1281 23 1185 98 c 1
 1024 28 797 0 478 0 c 2
 55 0 l 1
 55 300 l 1
 328 300 l 1
EndSplineSet
Colour: ff00ff
EndChar

StartChar: uniE051
Encoding: 57425 57425 515
Width: 1317
Flags: HW
LayerCount: 2
Fore
SplineSet
454 304 m 1
 931 328 945 398 945 473 c 0
 945 531 906 587 820 587 c 0
 740 587 576 519 454 304 c 1
0 300 m 2
 108 300 l 1
 108 1356 l 1
 408 1356 l 1
 408 651 l 1
 551 811 708 887 840 887 c 0
 1035 887 1245 754 1245 506 c 0
 1245 160 949 0 258 0 c 2
 0 0 l 2
 -83 0 -150 67 -150 150 c 0
 -150 233 -83 300 0 300 c 2
EndSplineSet
Colour: ff00ff
EndChar

StartChar: uniE052
Encoding: 57426 57426 516
Width: 1318
Flags: HW
LayerCount: 2
Fore
SplineSet
454 304 m 1
 931 328 945 398 945 473 c 0
 945 531 906 587 820 587 c 0
 740 587 576 519 454 304 c 1
0 300 m 2
 108 301 l 1
 108 1356 l 1
 408 1356 l 1
 408 651 l 1
 550 810 706 887 840 887 c 0
 1035 887 1245 754 1245 506 c 0
 1245 435 1232 369 1203 309 c 1
 1231 302 1268 300 1317 300 c 1
 1318 300 l 1
 1318 0 l 1
 1317 0 l 1
 1183 0 1061 23 965 98 c 1
 804 28 577 0 258 0 c 2
 0 0 l 2
 -83 0 -150 67 -150 150 c 0
 -150 233 -83 300 0 300 c 2
EndSplineSet
Colour: ff00ff
EndChar

StartChar: uniE053
Encoding: 57427 57427 517
Width: 1144
Flags: HW
LayerCount: 2
Fore
SplineSet
1062 576 m 0
 1062 470 1023 376 965 313 c 1
 1021 304 1078 300 1143 300 c 1
 1144 300 l 1
 1144 0 l 1
 1143 0 l 1
 947 0 778 31 637 94 c 1
 445 6 315 -102 315 -232 c 0
 315 -382 518 -443 719 -443 c 0
 864 -443 1007 -408 1074 -365 c 1
 1180 -645 l 1
 1047 -704 872 -740 700 -740 c 0
 347 -740 15 -596 15 -236 c 0
 15 15 199 185 360 285 c 1
 264 359 170 447 86 550 c 1
 94 759 l 1
 227 860 391 938 594 938 c 0
 796 938 1062 830 1062 576 c 0
762 550 m 0
 762 609 683 638 610 638 c 0
 552 638 469 616 435 592 c 1
 435 590 l 1
 497 521 564 465 646 422 c 1
 739 473 762 519 762 550 c 0
EndSplineSet
Colour: ff00ff
EndChar

StartChar: uniE054
Encoding: 57428 57428 518
Width: 1083
Flags: HW
LayerCount: 2
Fore
SplineSet
353 483 m 0
 353 404 433 365 530 365 c 0
 554 365 580 367 605 372 c 2
 951 439 l 1
 1007 143 l 1
 466 40 l 2
 322 13 166 0 0 0 c 0
 -84 0 -149 69 -149 150 c 0
 -149 231 -84 300 0 300 c 0
 34 300 68 301 100 302 c 1
 70 358 53 415 53 483 c 0
 53 762 258 990 527 990 c 0
 741 990 880 872 968 751 c 1
 733 557 l 1
 691 623 640 690 527 690 c 0
 423 690 353 602 353 483 c 0
EndSplineSet
Colour: ff00ff
EndChar

StartChar: uniE055
Encoding: 57429 57429 519
Width: 1026
Flags: HW
LayerCount: 2
Fore
SplineSet
28 706 m 1
 148 856 341 938 549 938 c 0
 733 938 1002 829 1002 566 c 0
 1002 461 957 356 888 306 c 1
 918 303 975 300 1025 300 c 1
 1026 300 l 1
 1026 0 l 1
 1025 0 l 1
 864 0 723 26 595 90 c 1
 416 20 202 0 0 0 c 0
 -83 0 -150 67 -150 150 c 0
 -150 233 -83 300 0 300 c 0
 97 300 208 303 266 308 c 1
 188 349 88 447 28 511 c 1
 28 706 l 1
372 592 m 1
 372 586 l 1
 448 521 512 467 603 422 c 1
 683 467 702 512 702 551 c 0
 702 589 663 638 549 638 c 0
 496 638 425 619 372 592 c 1
EndSplineSet
Colour: ff00ff
EndChar

StartChar: uniE056
Encoding: 57430 57430 520
Width: 1748
Flags: HW
LayerCount: 2
Fore
SplineSet
1215 1356 m 1
 1515 1356 l 1
 1515 592 l 2
 1515 470 1518 391 1563 347 c 0
 1596 314 1652 300 1747 300 c 2
 1748 300 l 1
 1748 0 l 1
 1747 0 l 1
 1642 0 1542 21 1458 69 c 0
 1423 89 1391 113 1363 143 c 1
 1331 113 1291 89 1244 69 c 0
 1125 19 960 0 760 0 c 0
 432 0 28 51 28 472 c 0
 28 582 47 693 70 785 c 1
 361 716 l 1
 346 647 328 541 328 472 c 0
 328 358 415 300 769 300 c 0
 979 300 1097 302 1158 364 c 0
 1200 406 1215 476 1215 592 c 2
 1215 1356 l 1
EndSplineSet
Colour: ff00ff
EndChar

StartChar: uniE057
Encoding: 57431 57431 521
Width: 999
Flags: HW
LayerCount: 2
Fore
SplineSet
0 300 m 2
 121 300 l 2
 312 300 398 366.94232089 398 445 c 0
 398 554 147 756 -51 904 c 1
 -51 1148 l 1
 223 1327 536 1457 872 1525 c 1
 932 1231 l 1
 708 1185 498 1115 299 1009 c 1
 299 1007 l 1
 489 841 705 652 705 415 c 0
 705 72 276 0 128 0 c 0
 0 0 l 2
 -83 0 -150 67 -150 150 c 1
 -150 233 -83 300 0 300 c 2
EndSplineSet
Colour: ff00ff
EndChar

StartChar: uniE058
Encoding: 57432 57432 522
Width: 1020
Flags: HW
LayerCount: 2
Fore
SplineSet
0 300 m 2
 121 300 l 2
 312 300 398 366.94232089 398 445 c 0
 398 554 147 756 -51 904 c 1
 -51 1148 l 1
 223 1327 536 1457 872 1525 c 1
 932 1231 l 1
 708 1185 498 1115 299 1009 c 1
 299 1007 l 1
 501 844 603 684 676 558 c 0
 766.446289062 401.88671875 835 300 1019 300 c 2
 1020 300 l 1
 1020 0 l 1
 1019 0 l 2
 842 0 684 70 595 193 c 1
 487.887695312 75.2529296875 340 -2.5961654701e-14 128 0 c 2
 0 0 l 2
 -83 0 -150 67 -150 150 c 1
 -150 233 -83 300 0 300 c 2
EndSplineSet
Colour: ff00ff
EndChar

StartChar: uniE059
Encoding: 57433 57433 523
Width: 1439
Flags: HW
LayerCount: 2
Fore
SplineSet
1439 300 m 1
 1439 0 l 1
 1438 0 l 1
 1353 0 1270 15 1203 54 c 1
 1203 49 l 2
 1203 -268 941 -506 602 -506 c 0
 271 -506 28 -291 28 38 c 0
 28 167 59 310 123 466 c 1
 390 360 l 1
 340 230 327 112 327 32 c 0
 327 -116 403 -206 618 -206 c 0
 826 -206 907 -133 907 118 c 2
 907 1356 l 1
 1207 1356 l 1
 1207 589 l 2
 1207 453 1232 378 1254 350 c 0
 1275 324 1313 300 1438 300 c 1
 1439 300 l 1
EndSplineSet
Colour: ff00ff
EndChar

StartChar: uniE05A
Encoding: 57434 57434 524
Width: 596
Flags: HW
LayerCount: 2
Fore
SplineSet
496 466 m 2
 496 318 453 204 374 126 c 0
 289 43 162 0 0 0 c 0
 -83 0 -150 67 -150 150 c 0
 -150 233 -83 300 0 300 c 0
 92 300 142 307 168 336 c 0
 190 361 196 401 196 466 c 2
 196 1356 l 1
 496 1356 l 1
 496 466 l 2
EndSplineSet
Colour: ff00ff
EndChar

StartChar: uniE05B
Encoding: 57435 57435 525
Width: 692
Flags: HW
LayerCount: 2
Fore
SplineSet
0 300 m 0
 106 300 139 324 155 342 c 0
 182 377 196 448 196 549 c 2
 196 1356 l 1
 496 1356 l 1
 496 549 l 2
 496 447 511 376 538 342 c 0
 553 325 585 300 691 300 c 1
 692 300 l 1
 692 0 l 1
 691 0 l 1
 558 0 437 31 346 110 c 1
 253 28 133 0 0 0 c 0
 -83 0 -150 67 -150 150 c 0
 -150 233 -83 300 0 300 c 0
EndSplineSet
Colour: ff00ff
EndChar

StartChar: uniE05C
Encoding: 57436 57436 526
Width: 1329
Flags: HW
LayerCount: 2
Fore
SplineSet
606 338 m 1
 676 315 738 300 793 300 c 0
 849 300 869 323 869 374 c 0
 869 493 806 543 760 543 c 0
 695 543 634 474 606 338 c 1
1329 0 m 1
 1328 0 l 1
 1224 0 1128 26 1045 85 c 1
 971 23 879 0 793 0 c 0
 680 0 569 29 486 62 c 0
 461 72 435 82 401 82 c 0
 363 82 328 67 328 -27 c 2
 328 -785 l 1
 28 -785 l 1
 28 -27 l 2
 28 153 129 323 307 370 c 1
 341 558 451 843 760 843 c 0
 1007 843 1143 631 1166 439 c 0
 1183 315 1210 300 1328 300 c 1
 1329 300 l 1
 1329 0 l 1
EndSplineSet
Colour: ff00ff
EndChar

StartChar: uniE05D
Encoding: 57437 57437 527
Width: 1046
Flags: HW
LayerCount: 2
Fore
SplineSet
0 300 m 0
 78 300 87 304 133 397 c 0
 148 428 165 467 181 512 c 0
 242 680 373 863 605 863 c 0
 880 863 1018 595 1018 394 c 0
 1018 187 861 0 627 0 c 0
 486 0 402 57 312 127 c 1
 234 45 127 0 0 0 c 0
 -83 0 -150 67 -150 150 c 0
 -150 233 -83 300 0 300 c 0
458 396 m 1
 513 342 576 300 625 300 c 0
 666 300 718 329 718 394 c 0
 718 495 643 563 605 563 c 0
 558 563 509 533 463 408 c 1
 458 396 l 1
EndSplineSet
Colour: ff00ff
EndChar

StartChar: uniE05E
Encoding: 57438 57438 528
Width: 1238
Flags: HW
LayerCount: 2
Fore
SplineSet
0 300 m 0
 78 300 87 304 133 397 c 0
 148 428 165 467 181 512 c 0
 242 680 373 863 605 863 c 0
 856 863 993 638 1015 449 c 0
 1021 401 1037 369 1053 350 c 0
 1073 325 1112 300 1237 300 c 1
 1238 300 l 1
 1238 0 l 1
 1237 0 l 1
 1105 0 984 24 890 94 c 1
 826 34 722 0 628 0 c 0
 486 0 402 57 312 127 c 1
 234 45 127 0 0 0 c 0
 -83 0 -150 67 -150 150 c 0
 -150 233 -83 300 0 300 c 0
458 396 m 1
 513 342 575 300 628 300 c 0
 665 300 718 329 718 394 c 0
 718 495 643 563 605 563 c 0
 558 563 509 533 463 408 c 1
 458 396 l 1
EndSplineSet
Colour: ff00ff
EndChar

StartChar: uniE05F
Encoding: 57439 57439 529
Width: 1041
Flags: HW
LayerCount: 2
Fore
SplineSet
535 668 m 1
 364 642 330 575 330 535 c 0
 330 491 343 452 477 452 c 0
 499 452 520 454 547 461 c 1
 535 668 l 1
1041 0 m 1
 1040 0 l 1
 858 0 736 42 631 169 c 1
 584 161 519 152 477 152 c 0
 295 152 30 240 30 519 c 0
 30 793 291 923 516 974 c 1
 510 1086 l 1
 810 1104 l 1
 845 505 l 2
 853 363 885 300 1040 300 c 1
 1041 300 l 1
 1041 0 l 1
EndSplineSet
Colour: ff00ff
EndChar

StartChar: uniE060
Encoding: 57440 57440 530
Width: 1293
Flags: HW
LayerCount: 2
Fore
SplineSet
0 300 m 0
 42 300 85 301 122 304 c 1
 72 375 47 455 47 532 c 0
 47 640 95 743 183 818 c 1
 58 863 l 1
 168 1123 l 1
 690 935 l 2
 1093.20238575 789.785347662 1265 642 1265 382 c 0
 1265 174 1111 0 854 0 c 0
 756 0 593 24 473 65 c 1
 333 17 172 0 0 0 c 0
 -83 0 -150 67 -150 150 c 0
 -150 233 -83 300 0 300 c 0
484 384 m 1
 541 409 592 504 592 580 c 0
 592 634 566 678 499 678 c 0
 436 678 347 619 347 533 c 0
 347 488 394 434 484 384 c 1
751 314 m 1
 794 305 833 300 864 300 c 0
 929 300 965 320 965 382 c 0
 965 424 934 494 820 556 c 1
 816 473 791 378 751 314 c 1
EndSplineSet
Colour: ff00ff
EndChar

StartChar: uniE061
Encoding: 57441 57441 531
Width: 986
Flags: HW
LayerCount: 2
Fore
SplineSet
386 339 m 1
 506 370 608 419 608 535 c 0
 608 577 592 614 544 614 c 0
 491 614 413 564 386 339 c 1
986 0 m 1
 985 0 l 1
 882 0 820 -47 820 -141 c 2
 820 -374 l 1
 621 -505 l 1
 365 -449 199 -268 124 0 c 1
 83 0 43 0 0 0 c 1
 -83 0 -150 67 -150 150 c 0
 -150 233 -83 300 0 300 c 1
 36 300 68 300 101 300 c 1
 122 607 225 914 544 914 c 0
 758 914 885 787 885 587 c 0
 885 319 590 72 405 36 c 1
 436 -53 496 -139 564 -185 c 1
 572 -180 l 1
 572 -140 l 2
 572 44 777 299 985 300 c 1
 986 300 l 1
 986 0 l 1
EndSplineSet
Colour: ff00ff
EndChar

StartChar: uniE062
Encoding: 57442 57442 532
Width: 928
Flags: HW
LayerCount: 2
Fore
SplineSet
876 0 m 1
 791 -290 520 -433 154 -532 c 1
 52 -250 l 1
 293 -191 478 -85 544 0 c 1
 488 0 l 2
 290 0 62 101 62 376 c 0
 62 594 205 873 470 873 c 0
 811 873 877 486 894 300 c 1
 928 300 l 1
 928 0 l 1
 876 0 l 1
592 300 m 1
 567 497 520 576 470 576 c 0
 416 576 362 505 362 379 c 0
 362 324 377 300 488 300 c 2
 592 300 l 1
EndSplineSet
Colour: ff00ff
EndChar

StartChar: uniE063
Encoding: 57443 57443 533
Width: 1033
Flags: HW
LayerCount: 2
Fore
SplineSet
673 514 m 1
 600 434 527 367 451 303 c 1
 450 293 l 1
 474 289 491 288 511 288 c 0
 657 288 726 312 726 332 c 0
 726 353 709 428 673 514 c 1
651 949 m 1
 703 1077 717 1193 717 1356 c 1
 1017 1356 l 1
 1017 1072 960 916 844 717 c 1
 921 584 980 453 980 325 c 0
 980 31 668 -3 537 -3 c 0
 366 -3 215 55 97 132 c 1
 97 368 l 1
 234 466 362 565 485 721 c 1
 347 914 179 1030 16 1137 c 1
 187 1384 l 1
 360 1267 512 1125 651 949 c 1
EndSplineSet
Colour: ff00ff
EndChar

StartChar: uniE064
Encoding: 57444 57444 534
Width: 1372
Flags: HW
LayerCount: 2
Fore
SplineSet
549 500 m 1
 249 477 l 1
 249 742 195 977 78 1249 c 1
 354 1367 l 1
 489 1055 549 778 549 500 c 1
1372 0 m 1
 1371 0 l 1
 1199 0 1045 49 949 170 c 1
 759 28 495 0 100 0 c 1
 100 300 l 1
 759 300 838 367 838 588 c 2
 838 1356 l 1
 1138 1356 l 1
 1138 592 l 2
 1138 457 1163 382 1186 353 c 0
 1206 328 1246 300 1371 300 c 1
 1372 300 l 1
 1372 0 l 1
EndSplineSet
Colour: ff00ff
EndChar

StartChar: uniE065
Encoding: 57445 57445 535
Width: 1873
Flags: HW
LayerCount: 2
Back
SplineSet
1872 300 m 2
 1758 300 1708 322 1708 417 c 0
 1708 474 1726 558 1760 681 c 1
 1470 755 l 1
 1381 421 1248 300 818 300 c 0
 601 300 329 350 329 543 c 0
 329 620 355 718 375 785 c 1
 84 863 l 1
 55 770 28 646 28 530 c 0
 28 111 422 0 774 0 c 0
 1023 0 1319 38 1460 193 c 1
 1549 70 1695 0 1872 0 c 2
 1873 0 l 1
 1873 300 l 1
 1872 300 l 2
EndSplineSet
Fore
SplineSet
1760 681 m 1
 1726 558 1708 474 1708 417 c 0
 1708 322 1758 300 1872 300 c 2
 1873 300 l 1
 1873 0 l 1
 1872 0 l 1
 1690 0 1539 59 1460 191 c 1
 1276 35 1059 0 757 0 c 0
 292 0 27 200 27 538 c 0
 27 641 51 757 101 884 c 1
 380 780 l 1
 350 686 332 608 332 544 c 0
 332 372 463 300 809 300 c 0
 1291 300 1381 421 1470 755 c 1
 1760 681 l 1
EndSplineSet
Colour: ff00ff
EndChar

StartChar: uniE066
Encoding: 57446 57446 536
Width: 921
Flags: HW
LayerCount: 2
Fore
SplineSet
601 424 m 1
 549 414 497 409 447 409 c 0
 232 409 55 506 55 763 c 0
 55 981 198 1260 463 1260 c 0
 875 1260 893 710 893 558 c 0
 893 132 644 0 0 0 c 0
 -83 0 -150 67 -150 150 c 0
 -150 232 -84 300 0 300 c 0
 476 300 556 336 601 424 c 1
585 694 m 1
 560 883 513 960 463 960 c 0
 409 960 355 889 355 763 c 0
 355 708 370 684 481 684 c 0
 520 684 553 687 585 694 c 1
EndSplineSet
Colour: ff00ff
EndChar

StartChar: uniE067
Encoding: 57447 57447 537
Width: 1876
Flags: HW
LayerCount: 2
Back
SplineSet
1420 384 m 1
 1497 425 1532 471 1532 561 c 0
 1532 628 1498 687 1422 687 c 0
 1344 687 1312 630 1312 561 c 0
 1312 474 1349 425 1420 384 c 1
774 0 m 0
 422 0 28 111 28 530 c 0
 28 646 55 770 84 863 c 1
 375 785 l 1
 355 718 329 620 329 543 c 0
 329 340 605 300 859 300 c 0
 938 300 1015 304 1081 309 c 1
 1036 384 1012 466 1012 561 c 0
 1012 816 1190 987 1422 987 c 0
 1650 987 1832 817 1832 561 c 0
 1832 465 1807 379 1761 304 c 1
 1800 301 1835 300 1875 300 c 1
 1876 300 l 1
 1876 0 l 1
 1875 0 l 1
 1714 0 1551 21 1416 65 c 1
 1223 16 1015 0 774 0 c 0
EndSplineSet
Fore
SplineSet
1416 65 m 1
 1261 18 1084 0 891 0 c 0
 522 0 29 47 29 492 c 0
 29 646 70 760 110 865 c 1
 395 772 l 1
 360 672 337 590 337 525 c 0
 337 362 476 300 891 300 c 0
 958 300 1023 303 1081 307 c 1
 1036 382 1012 466 1012 561 c 0
 1012 816 1190 987 1422 987 c 0
 1650 987 1832 817 1832 561 c 0
 1832 465 1807 379 1761 304 c 1
 1800 301 1835 300 1875 300 c 1
 1876 300 l 1
 1876 0 l 1
 1875 0 l 1
 1714 0 1551 21 1416 65 c 1
1420 384 m 1
 1497 425 1532 471 1532 561 c 0
 1532 628 1498 687 1422 687 c 0
 1344 687 1312 630 1312 561 c 0
 1312 474 1349 425 1420 384 c 1
EndSplineSet
Colour: ff00ff
EndChar

StartChar: uniE068
Encoding: 57448 57448 538
Width: 908
Flags: HW
LayerCount: 2
Fore
SplineSet
0 300 m 0
 39 300 79 302 115 304 c 1
 68 380 44 464 44 561 c 0
 44 816 222 987 454 987 c 0
 682 987 864 817 864 561 c 0
 864 464 839 378 793 304 c 1
 830 301 867 300 907 300 c 1
 908 300 l 1
 908 0 l 1
 907 0 l 1
 748 0 588 18 454 61 c 1
 318 17 160 0 0 0 c 0
 -83 0 -150 67 -150 150 c 0
 -150 233 -83 300 0 300 c 0
454 382 m 1
 528 424 564 473 564 561 c 0
 564 628 530 687 454 687 c 0
 376 687 344 630 344 561 c 0
 344 473 381 423 454 382 c 1
EndSplineSet
Colour: ff00ff
EndChar

StartChar: uniE069
Encoding: 57449 57449 539
Width: 1415
Flags: HW
LayerCount: 2
Fore
SplineSet
1070 0 m 1
 975 0 l 2
 777 0 549 101 549 376 c 0
 549 594 692 873 957 873 c 0
 1288 873 1365 518 1382 300 c 1
 1415 300 l 1
 1415 0 l 1
 1370 0 l 1
 1301 -333 1028 -506 684 -506 c 0
 350 -506 28 -326 28 73 c 0
 28 287 112 489 225 681 c 1
 484 534 l 1
 384 369 328 197 328 73 c 0
 328 -90 425 -206 684 -206 c 0
 901 -206 1024 -124 1070 0 c 1
1080 300 m 1
 1055 489 1007 576 957 576 c 0
 903 576 849 505 849 379 c 0
 849 324 864 300 975 300 c 2
 1080 300 l 1
EndSplineSet
Colour: ff00ff
EndChar

